<?xml version="1.0" encoding="UTF-8" standalone="no"?><svg xmlns="http://www.w3.org/2000/svg" xmlns:xlink="http://www.w3.org/1999/xlink" contentScriptType="application/ecmascript" contentStyleType="text/css" height="2883px" preserveAspectRatio="none" style="width:1149px;height:2883px;background:#FFFFFF;" version="1.1" viewBox="0 0 1149 2883" width="1149px" zoomAndPan="magnify"><defs><filter height="300%" id="f1qmgjb6rwj0zo" width="300%" x="-1" y="-1"><feGaussianBlur result="blurOut" stdDeviation="2.0"/><feColorMatrix in="blurOut" result="blurOut2" type="matrix" values="0 0 0 0 0 0 0 0 0 0 0 0 0 0 0 0 0 0 .4 0"/><feOffset dx="4.0" dy="4.0" in="blurOut2" result="blurOut3"/><feBlend in="SourceGraphic" in2="blurOut3" mode="normal"/></filter></defs><g><rect fill="none" height="26.4883" style="stroke:none;stroke-width:1.0;" width="95" x="497" y="15"/><text fill="#000000" font-family="sans-serif" font-size="14" font-weight="bold" lengthAdjust="spacing" textLength="85" x="502" y="33.5352">Family Tree</text><rect fill="#FEFECE" filter="url(#f1qmgjb6rwj0zo)" height="36.4883" rx="12.5" ry="12.5" style="stroke:#A80036;stroke-width:1.5;" width="89" x="10" y="1441.4512"/><text fill="#000000" font-family="sans-serif" font-size="14" lengthAdjust="spacing" textLength="69" x="20" y="1464.9863">guravayya</text><rect fill="#FEFECE" filter="url(#f1qmgjb6rwj0zo)" height="36.4883" rx="12.5" ry="12.5" style="stroke:#A80036;stroke-width:1.5;" width="123" x="149" y="283.4414"/><text fill="#000000" font-family="sans-serif" font-size="14" lengthAdjust="spacing" textLength="103" x="159" y="306.9766">pedda kottaiah</text><rect fill="#FEFECE" filter="url(#f1qmgjb6rwj0zo)" height="36.4883" rx="12.5" ry="12.5" style="stroke:#A80036;stroke-width:1.5;" width="64" x="322" y="283.4414"/><text fill="#000000" font-family="sans-serif" font-size="14" lengthAdjust="spacing" textLength="44" x="332" y="306.9766">kasiah</text><rect fill="#FEFECE" filter="url(#f1qmgjb6rwj0zo)" height="36.4883" rx="12.5" ry="12.5" style="stroke:#A80036;stroke-width:1.5;" width="102" x="436" y="283.4414"/><text fill="#000000" font-family="sans-serif" font-size="14" lengthAdjust="spacing" textLength="82" x="446" y="306.9766">prakash rao</text><rect fill="#FEFECE" filter="url(#f1qmgjb6rwj0zo)" height="36.4883" rx="12.5" ry="12.5" style="stroke:#A80036;stroke-width:1.5;" width="72" x="588" y="113.9766"/><text fill="#000000" font-family="sans-serif" font-size="14" lengthAdjust="spacing" textLength="52" x="598" y="137.5117">Suseela</text><path d="M538,301.6855 L548,301.6855 C563,301.6855 563,132.2207 578,132.2207 L588,132.2207 " fill="none" style="stroke:#A80036;stroke-width:1.0;"/><rect fill="#FEFECE" filter="url(#f1qmgjb6rwj0zo)" height="36.4883" rx="12.5" ry="12.5" style="stroke:#A80036;stroke-width:1.5;" width="26" x="588" y="170.4648"/><text fill="#000000" font-family="sans-serif" font-size="14" lengthAdjust="spacing" textLength="6" x="598" y="194">?</text><path d="M538,301.6855 L548,301.6855 C563,301.6855 563,188.709 578,188.709 L588,188.709 " fill="none" style="stroke:#A80036;stroke-width:1.0;"/><rect fill="#FEFECE" filter="url(#f1qmgjb6rwj0zo)" height="36.4883" rx="12.5" ry="12.5" style="stroke:#A80036;stroke-width:1.5;" width="64" x="588" y="226.9531"/><text fill="#000000" font-family="sans-serif" font-size="14" lengthAdjust="spacing" textLength="44" x="598" y="250.4883">kasiah</text><rect fill="#FEFECE" filter="url(#f1qmgjb6rwj0zo)" height="36.4883" rx="12.5" ry="12.5" style="stroke:#A80036;stroke-width:1.5;" width="55" x="702" y="85.7324"/><text fill="#000000" font-family="sans-serif" font-size="14" lengthAdjust="spacing" textLength="35" x="712" y="109.2676">rama</text><rect fill="#FEFECE" filter="url(#f1qmgjb6rwj0zo)" height="36.4883" rx="12.5" ry="12.5" style="stroke:#A80036;stroke-width:1.5;" width="78" x="807" y="57.4883"/><text fill="#000000" font-family="sans-serif" font-size="14" lengthAdjust="spacing" textLength="58" x="817" y="81.0234">Sireesha</text><path d="M757,103.9766 L767,103.9766 C782,103.9766 782,75.7324 797,75.7324 L807,75.7324 " fill="none" style="stroke:#A80036;stroke-width:1.0;"/><rect fill="#FEFECE" filter="url(#f1qmgjb6rwj0zo)" height="36.4883" rx="12.5" ry="12.5" style="stroke:#A80036;stroke-width:1.5;" width="123" x="807" y="113.9766"/><text fill="#000000" font-family="sans-serif" font-size="14" lengthAdjust="spacing" textLength="103" x="817" y="137.5117">Chandra Kanth</text><path d="M757,103.9766 L767,103.9766 C782,103.9766 782,132.2207 797,132.2207 L807,132.2207 " fill="none" style="stroke:#A80036;stroke-width:1.0;"/><path d="M652,245.1973 L662,245.1973 C677,245.1973 677,103.9766 692,103.9766 L702,103.9766 " fill="none" style="stroke:#A80036;stroke-width:1.0;"/><rect fill="#FEFECE" filter="url(#f1qmgjb6rwj0zo)" height="36.4883" rx="12.5" ry="12.5" style="stroke:#A80036;stroke-width:1.5;" width="75" x="702" y="198.709"/><text fill="#000000" font-family="sans-serif" font-size="14" lengthAdjust="spacing" textLength="55" x="712" y="222.2441">prakash</text><rect fill="#FEFECE" filter="url(#f1qmgjb6rwj0zo)" height="36.4883" rx="12.5" ry="12.5" style="stroke:#A80036;stroke-width:1.5;" width="71" x="827" y="170.4648"/><text fill="#000000" font-family="sans-serif" font-size="14" lengthAdjust="spacing" textLength="51" x="837" y="194">Supriya</text><path d="M777,216.9531 L787,216.9531 C802,216.9531 802,188.709 817,188.709 L827,188.709 " fill="none" style="stroke:#A80036;stroke-width:1.0;"/><rect fill="#FEFECE" filter="url(#f1qmgjb6rwj0zo)" height="36.4883" rx="12.5" ry="12.5" style="stroke:#A80036;stroke-width:1.5;" width="69" x="827" y="226.9531"/><text fill="#000000" font-family="sans-serif" font-size="14" lengthAdjust="spacing" textLength="49" x="837" y="250.4883">Karthik</text><path d="M777,216.9531 L787,216.9531 C802,216.9531 802,245.1973 817,245.1973 L827,245.1973 " fill="none" style="stroke:#A80036;stroke-width:1.0;"/><path d="M652,245.1973 L662,245.1973 C677,245.1973 677,216.9531 692,216.9531 L702,216.9531 " fill="none" style="stroke:#A80036;stroke-width:1.0;"/><rect fill="#FEFECE" filter="url(#f1qmgjb6rwj0zo)" height="36.4883" rx="12.5" ry="12.5" style="stroke:#A80036;stroke-width:1.5;" width="64" x="702" y="283.4414"/><text fill="#000000" font-family="sans-serif" font-size="14" lengthAdjust="spacing" textLength="44" x="712" y="306.9766">kumar</text><rect fill="#FEFECE" filter="url(#f1qmgjb6rwj0zo)" height="36.4883" rx="12.5" ry="12.5" style="stroke:#A80036;stroke-width:1.5;" width="83" x="816" y="283.4414"/><text fill="#000000" font-family="sans-serif" font-size="14" lengthAdjust="spacing" textLength="63" x="826" y="306.9766">Meghana</text><path d="M766,301.6855 L776,301.6855 C791,301.6855 791,301.6855 806,301.6855 L816,301.6855 " fill="none" style="stroke:#A80036;stroke-width:1.0;"/><path d="M652,245.1973 L662,245.1973 C677,245.1973 677,301.6855 692,301.6855 L702,301.6855 " fill="none" style="stroke:#A80036;stroke-width:1.0;"/><rect fill="#FEFECE" filter="url(#f1qmgjb6rwj0zo)" height="36.4883" rx="12.5" ry="12.5" style="stroke:#A80036;stroke-width:1.5;" width="66" x="702" y="368.1738"/><text fill="#000000" font-family="sans-serif" font-size="14" lengthAdjust="spacing" textLength="46" x="712" y="391.709">sekhar</text><rect fill="#FEFECE" filter="url(#f1qmgjb6rwj0zo)" height="36.4883" rx="12.5" ry="12.5" style="stroke:#A80036;stroke-width:1.5;" width="65" x="818" y="339.9297"/><text fill="#000000" font-family="sans-serif" font-size="14" lengthAdjust="spacing" textLength="45" x="828" y="363.4648">Tejesh</text><path d="M768,386.418 L778,386.418 C793,386.418 793,358.1738 808,358.1738 L818,358.1738 " fill="none" style="stroke:#A80036;stroke-width:1.0;"/><rect fill="#FEFECE" filter="url(#f1qmgjb6rwj0zo)" height="36.4883" rx="12.5" ry="12.5" style="stroke:#A80036;stroke-width:1.5;" width="62" x="818" y="396.418"/><text fill="#000000" font-family="sans-serif" font-size="14" lengthAdjust="spacing" textLength="42" x="828" y="419.9531">Akash</text><path d="M768,386.418 L778,386.418 C793,386.418 793,414.6621 808,414.6621 L818,414.6621 " fill="none" style="stroke:#A80036;stroke-width:1.0;"/><path d="M652,245.1973 L662,245.1973 C677,245.1973 677,386.418 692,386.418 L702,386.418 " fill="none" style="stroke:#A80036;stroke-width:1.0;"/><path d="M538,301.6855 L548,301.6855 C563,301.6855 563,245.1973 578,245.1973 L588,245.1973 " fill="none" style="stroke:#A80036;stroke-width:1.0;"/><rect fill="#FEFECE" filter="url(#f1qmgjb6rwj0zo)" height="36.4883" rx="12.5" ry="12.5" style="stroke:#A80036;stroke-width:1.5;" width="75" x="588" y="452.9063"/><text fill="#000000" font-family="sans-serif" font-size="14" lengthAdjust="spacing" textLength="55" x="598" y="476.4414">Ramana</text><path d="M538,301.6855 L548,301.6855 C563,301.6855 563,471.1504 578,471.1504 L588,471.1504 " fill="none" style="stroke:#A80036;stroke-width:1.0;"/><rect fill="#FEFECE" filter="url(#f1qmgjb6rwj0zo)" height="36.4883" rx="12.5" ry="12.5" style="stroke:#A80036;stroke-width:1.5;" width="26" x="588" y="509.3945"/><text fill="#000000" font-family="sans-serif" font-size="14" lengthAdjust="spacing" textLength="6" x="598" y="532.9297">?</text><path d="M538,301.6855 L548,301.6855 C563,301.6855 563,527.6387 578,527.6387 L588,527.6387 " fill="none" style="stroke:#A80036;stroke-width:1.0;"/><path d="M386,301.6855 L396,301.6855 C411,301.6855 411,301.6855 426,301.6855 L436,301.6855 " fill="none" style="stroke:#A80036;stroke-width:1.0;"/><path d="M272,301.6855 L282,301.6855 C297,301.6855 297,301.6855 312,301.6855 L322,301.6855 " fill="none" style="stroke:#A80036;stroke-width:1.0;"/><path d="M99,1459.6953 L109,1459.6953 C124,1459.6953 124,301.6855 139,301.6855 L149,301.6855 " fill="none" style="stroke:#A80036;stroke-width:1.0;"/><rect fill="#FEFECE" filter="url(#f1qmgjb6rwj0zo)" height="36.4883" rx="12.5" ry="12.5" style="stroke:#A80036;stroke-width:1.5;" width="126" x="149" y="1469.6953"/><text fill="#000000" font-family="sans-serif" font-size="14" lengthAdjust="spacing" textLength="106" x="159" y="1493.2305">chinna kottaiah</text><rect fill="#FEFECE" filter="url(#f1qmgjb6rwj0zo)" height="36.4883" rx="12.5" ry="12.5" style="stroke:#A80036;stroke-width:1.5;" width="301" x="325" y="1469.6953"/><text fill="#000000" font-family="sans-serif" font-size="14" lengthAdjust="spacing" textLength="281" x="335" y="1493.2305">dattata kumarudu venkata subbarao (#1)</text><rect fill="#FEFECE" filter="url(#f1qmgjb6rwj0zo)" height="36.4883" rx="12.5" ry="12.5" style="stroke:#A80036;stroke-width:1.5;" width="116" x="676" y="1130.7656"/><text fill="#000000" font-family="sans-serif" font-size="14" lengthAdjust="spacing" textLength="96" x="686" y="1154.3008">anasuryamma</text><rect fill="#FEFECE" filter="url(#f1qmgjb6rwj0zo)" height="36.4883" rx="12.5" ry="12.5" style="stroke:#A80036;stroke-width:1.5;" width="97" x="842" y="594.127"/><text fill="#000000" font-family="sans-serif" font-size="14" lengthAdjust="spacing" textLength="77" x="852" y="617.6621">Mohan Rao</text><rect fill="#FEFECE" filter="url(#f1qmgjb6rwj0zo)" height="36.4883" rx="12.5" ry="12.5" style="stroke:#A80036;stroke-width:1.5;" width="89" x="989" y="565.8828"/><text fill="#000000" font-family="sans-serif" font-size="14" lengthAdjust="spacing" textLength="69" x="999" y="589.418">Nagamani</text><path d="M939,612.3711 L949,612.3711 C964,612.3711 964,584.127 979,584.127 L989,584.127 " fill="none" style="stroke:#A80036;stroke-width:1.0;"/><rect fill="#FEFECE" filter="url(#f1qmgjb6rwj0zo)" height="36.4883" rx="12.5" ry="12.5" style="stroke:#A80036;stroke-width:1.5;" width="53" x="989" y="622.3711"/><text fill="#000000" font-family="sans-serif" font-size="14" lengthAdjust="spacing" textLength="33" x="999" y="645.9063">Jaalu</text><path d="M939,612.3711 L949,612.3711 C964,612.3711 964,640.6152 979,640.6152 L989,640.6152 " fill="none" style="stroke:#A80036;stroke-width:1.0;"/><path d="M792,1149.0098 L802,1149.0098 C817,1149.0098 817,612.3711 832,612.3711 L842,612.3711 " fill="none" style="stroke:#A80036;stroke-width:1.0;"/><rect fill="#FEFECE" filter="url(#f1qmgjb6rwj0zo)" height="36.4883" rx="12.5" ry="12.5" style="stroke:#A80036;stroke-width:1.5;" width="125" x="842" y="678.8594"/><text fill="#000000" font-family="sans-serif" font-size="14" lengthAdjust="spacing" textLength="105" x="852" y="702.3945">Muralidhar Rao</text><rect fill="#FEFECE" filter="url(#f1qmgjb6rwj0zo)" height="36.4883" rx="12.5" ry="12.5" style="stroke:#A80036;stroke-width:1.5;" width="66" x="1017" y="678.8594"/><text fill="#000000" font-family="sans-serif" font-size="14" lengthAdjust="spacing" textLength="46" x="1027" y="702.3945">Prasad</text><path d="M967,697.1035 L977,697.1035 C992,697.1035 992,697.1035 1007,697.1035 L1017,697.1035 " fill="none" style="stroke:#A80036;stroke-width:1.0;"/><path d="M792,1149.0098 L802,1149.0098 C817,1149.0098 817,697.1035 832,697.1035 L842,697.1035 " fill="none" style="stroke:#A80036;stroke-width:1.0;"/><rect fill="#FEFECE" filter="url(#f1qmgjb6rwj0zo)" height="36.4883" rx="12.5" ry="12.5" style="stroke:#A80036;stroke-width:1.5;" width="93" x="842" y="791.8359"/><text fill="#000000" font-family="sans-serif" font-size="14" lengthAdjust="spacing" textLength="73" x="852" y="815.3711">Ranga Rao</text><rect fill="#FEFECE" filter="url(#f1qmgjb6rwj0zo)" height="36.4883" rx="12.5" ry="12.5" style="stroke:#A80036;stroke-width:1.5;" width="61" x="985" y="735.3477"/><text fill="#000000" font-family="sans-serif" font-size="14" lengthAdjust="spacing" textLength="41" x="995" y="758.8828">Seshu</text><path d="M935,810.0801 L945,810.0801 C960,810.0801 960,753.5918 975,753.5918 L985,753.5918 " fill="none" style="stroke:#A80036;stroke-width:1.0;"/><rect fill="#FEFECE" filter="url(#f1qmgjb6rwj0zo)" height="36.4883" rx="12.5" ry="12.5" style="stroke:#A80036;stroke-width:1.5;" width="75" x="985" y="791.8359"/><text fill="#000000" font-family="sans-serif" font-size="14" lengthAdjust="spacing" textLength="55" x="995" y="815.3711">Kusuma</text><path d="M935,810.0801 L945,810.0801 C960,810.0801 960,810.0801 975,810.0801 L985,810.0801 " fill="none" style="stroke:#A80036;stroke-width:1.0;"/><rect fill="#FEFECE" filter="url(#f1qmgjb6rwj0zo)" height="36.4883" rx="12.5" ry="12.5" style="stroke:#A80036;stroke-width:1.5;" width="79" x="985" y="848.3242"/><text fill="#000000" font-family="sans-serif" font-size="14" lengthAdjust="spacing" textLength="59" x="995" y="871.8594">Upendra</text><path d="M935,810.0801 L945,810.0801 C960,810.0801 960,866.5684 975,866.5684 L985,866.5684 " fill="none" style="stroke:#A80036;stroke-width:1.0;"/><path d="M792,1149.0098 L802,1149.0098 C817,1149.0098 817,810.0801 832,810.0801 L842,810.0801 " fill="none" style="stroke:#A80036;stroke-width:1.0;"/><rect fill="#FEFECE" filter="url(#f1qmgjb6rwj0zo)" height="36.4883" rx="12.5" ry="12.5" style="stroke:#A80036;stroke-width:1.5;" width="111" x="842" y="961.3008"/><text fill="#000000" font-family="sans-serif" font-size="14" lengthAdjust="spacing" textLength="91" x="852" y="984.8359">Srinivasa Rao</text><rect fill="#FEFECE" filter="url(#f1qmgjb6rwj0zo)" height="36.4883" rx="12.5" ry="12.5" style="stroke:#A80036;stroke-width:1.5;" width="73" x="1003" y="904.8125"/><text fill="#000000" font-family="sans-serif" font-size="14" lengthAdjust="spacing" textLength="53" x="1013" y="928.3477">Deepthi</text><path d="M953,979.5449 L963,979.5449 C978,979.5449 978,923.0566 993,923.0566 L1003,923.0566 " fill="none" style="stroke:#A80036;stroke-width:1.0;"/><rect fill="#FEFECE" filter="url(#f1qmgjb6rwj0zo)" height="36.4883" rx="12.5" ry="12.5" style="stroke:#A80036;stroke-width:1.5;" width="97" x="1003" y="961.3008"/><text fill="#000000" font-family="sans-serif" font-size="14" lengthAdjust="spacing" textLength="77" x="1013" y="984.8359">Sudha Rani</text><path d="M953,979.5449 L963,979.5449 C978,979.5449 978,979.5449 993,979.5449 L1003,979.5449 " fill="none" style="stroke:#A80036;stroke-width:1.0;"/><rect fill="#FEFECE" filter="url(#f1qmgjb6rwj0zo)" height="36.4883" rx="12.5" ry="12.5" style="stroke:#A80036;stroke-width:1.5;" width="117" x="1003" y="1017.7891"/><text fill="#000000" font-family="sans-serif" font-size="14" lengthAdjust="spacing" textLength="97" x="1013" y="1041.3242">Vamsi Krishna</text><path d="M953,979.5449 L963,979.5449 C978,979.5449 978,1036.0332 993,1036.0332 L1003,1036.0332 " fill="none" style="stroke:#A80036;stroke-width:1.0;"/><path d="M792,1149.0098 L802,1149.0098 C817,1149.0098 817,979.5449 832,979.5449 L842,979.5449 " fill="none" style="stroke:#A80036;stroke-width:1.0;"/><rect fill="#FEFECE" filter="url(#f1qmgjb6rwj0zo)" height="36.4883" rx="12.5" ry="12.5" style="stroke:#A80036;stroke-width:1.5;" width="114" x="842" y="1159.0098"/><text fill="#000000" font-family="sans-serif" font-size="14" lengthAdjust="spacing" textLength="94" x="852" y="1182.5449">Rama Krishna</text><rect fill="#FEFECE" filter="url(#f1qmgjb6rwj0zo)" height="36.4883" rx="12.5" ry="12.5" style="stroke:#A80036;stroke-width:1.5;" width="80" x="1006" y="1074.2773"/><text fill="#000000" font-family="sans-serif" font-size="14" lengthAdjust="spacing" textLength="60" x="1016" y="1097.8125">Sharmila</text><path d="M956,1177.2539 L966,1177.2539 C981,1177.2539 981,1092.5215 996,1092.5215 L1006,1092.5215 " fill="none" style="stroke:#A80036;stroke-width:1.0;"/><rect fill="#FEFECE" filter="url(#f1qmgjb6rwj0zo)" height="36.4883" rx="12.5" ry="12.5" style="stroke:#A80036;stroke-width:1.5;" width="78" x="1006" y="1130.7656"/><text fill="#000000" font-family="sans-serif" font-size="14" lengthAdjust="spacing" textLength="58" x="1016" y="1154.3008">Sireesha</text><path d="M956,1177.2539 L966,1177.2539 C981,1177.2539 981,1149.0098 996,1149.0098 L1006,1149.0098 " fill="none" style="stroke:#A80036;stroke-width:1.0;"/><rect fill="#FEFECE" filter="url(#f1qmgjb6rwj0zo)" height="36.4883" rx="12.5" ry="12.5" style="stroke:#A80036;stroke-width:1.5;" width="73" x="1006" y="1187.2539"/><text fill="#000000" font-family="sans-serif" font-size="14" lengthAdjust="spacing" textLength="53" x="1016" y="1210.7891">Swapna</text><path d="M956,1177.2539 L966,1177.2539 C981,1177.2539 981,1205.498 996,1205.498 L1006,1205.498 " fill="none" style="stroke:#A80036;stroke-width:1.0;"/><rect fill="#FEFECE" filter="url(#f1qmgjb6rwj0zo)" height="36.4883" rx="12.5" ry="12.5" style="stroke:#A80036;stroke-width:1.5;" width="69" x="1006" y="1243.7422"/><text fill="#000000" font-family="sans-serif" font-size="14" lengthAdjust="spacing" textLength="49" x="1016" y="1267.2773">Swetha</text><path d="M956,1177.2539 L966,1177.2539 C981,1177.2539 981,1261.9863 996,1261.9863 L1006,1261.9863 " fill="none" style="stroke:#A80036;stroke-width:1.0;"/><path d="M792,1149.0098 L802,1149.0098 C817,1149.0098 817,1177.2539 832,1177.2539 L842,1177.2539 " fill="none" style="stroke:#A80036;stroke-width:1.0;"/><rect fill="#FEFECE" filter="url(#f1qmgjb6rwj0zo)" height="36.4883" rx="12.5" ry="12.5" style="stroke:#A80036;stroke-width:1.5;" width="120" x="842" y="1328.4746"/><text fill="#000000" font-family="sans-serif" font-size="14" lengthAdjust="spacing" textLength="100" x="852" y="1352.0098">Prabhakar Rao</text><rect fill="#FEFECE" filter="url(#f1qmgjb6rwj0zo)" height="36.4883" rx="12.5" ry="12.5" style="stroke:#A80036;stroke-width:1.5;" width="70" x="1012" y="1300.2305"/><text fill="#000000" font-family="sans-serif" font-size="14" lengthAdjust="spacing" textLength="50" x="1022" y="1323.7656">Aparna</text><path d="M962,1346.7188 L972,1346.7188 C987,1346.7188 987,1318.4746 1002,1318.4746 L1012,1318.4746 " fill="none" style="stroke:#A80036;stroke-width:1.0;"/><rect fill="#FEFECE" filter="url(#f1qmgjb6rwj0zo)" height="36.4883" rx="12.5" ry="12.5" style="stroke:#A80036;stroke-width:1.5;" width="118" x="1012" y="1356.7188"/><text fill="#000000" font-family="sans-serif" font-size="14" lengthAdjust="spacing" textLength="98" x="1022" y="1380.2539">Sunil Mahanth</text><path d="M962,1346.7188 L972,1346.7188 C987,1346.7188 987,1374.9629 1002,1374.9629 L1012,1374.9629 " fill="none" style="stroke:#A80036;stroke-width:1.0;"/><path d="M792,1149.0098 L802,1149.0098 C817,1149.0098 817,1346.7188 832,1346.7188 L842,1346.7188 " fill="none" style="stroke:#A80036;stroke-width:1.0;"/><rect fill="#FEFECE" filter="url(#f1qmgjb6rwj0zo)" height="36.4883" rx="12.5" ry="12.5" style="stroke:#A80036;stroke-width:1.5;" width="67" x="842" y="1441.4512"/><text fill="#000000" font-family="sans-serif" font-size="14" lengthAdjust="spacing" textLength="47" x="852" y="1464.9863">Sarada</text><rect fill="#FEFECE" filter="url(#f1qmgjb6rwj0zo)" height="36.4883" rx="12.5" ry="12.5" style="stroke:#A80036;stroke-width:1.5;" width="92" x="959" y="1413.207"/><text fill="#000000" font-family="sans-serif" font-size="14" lengthAdjust="spacing" textLength="72" x="969" y="1436.7422">Naga Mani</text><path d="M909,1459.6953 L919,1459.6953 C934,1459.6953 934,1431.4512 949,1431.4512 L959,1431.4512 " fill="none" style="stroke:#A80036;stroke-width:1.0;"/><rect fill="#FEFECE" filter="url(#f1qmgjb6rwj0zo)" height="36.4883" rx="12.5" ry="12.5" style="stroke:#A80036;stroke-width:1.5;" width="94" x="959" y="1469.6953"/><text fill="#000000" font-family="sans-serif" font-size="14" lengthAdjust="spacing" textLength="74" x="969" y="1493.2305">Naga Leela</text><path d="M909,1459.6953 L919,1459.6953 C934,1459.6953 934,1487.9395 949,1487.9395 L959,1487.9395 " fill="none" style="stroke:#A80036;stroke-width:1.0;"/><path d="M792,1149.0098 L802,1149.0098 C817,1149.0098 817,1459.6953 832,1459.6953 L842,1459.6953 " fill="none" style="stroke:#A80036;stroke-width:1.0;"/><rect fill="#FEFECE" filter="url(#f1qmgjb6rwj0zo)" height="36.4883" rx="12.5" ry="12.5" style="stroke:#A80036;stroke-width:1.5;" width="62" x="842" y="1610.916"/><text fill="#000000" font-family="sans-serif" font-size="14" lengthAdjust="spacing" textLength="42" x="852" y="1634.4512">Aruna</text><rect fill="#FEFECE" filter="url(#f1qmgjb6rwj0zo)" height="36.4883" rx="12.5" ry="12.5" style="stroke:#A80036;stroke-width:1.5;" width="70" x="954" y="1526.1836"/><text fill="#000000" font-family="sans-serif" font-size="14" lengthAdjust="spacing" textLength="50" x="964" y="1549.7188">Pushpa</text><path d="M904,1629.1602 L914,1629.1602 C929,1629.1602 929,1544.4277 944,1544.4277 L954,1544.4277 " fill="none" style="stroke:#A80036;stroke-width:1.0;"/><rect fill="#FEFECE" filter="url(#f1qmgjb6rwj0zo)" height="36.4883" rx="12.5" ry="12.5" style="stroke:#A80036;stroke-width:1.5;" width="143" x="954" y="1582.6719"/><text fill="#000000" font-family="sans-serif" font-size="14" lengthAdjust="spacing" textLength="123" x="964" y="1606.207">Lakshmi Prasanna</text><path d="M904,1629.1602 L914,1629.1602 C929,1629.1602 929,1600.916 944,1600.916 L954,1600.916 " fill="none" style="stroke:#A80036;stroke-width:1.0;"/><rect fill="#FEFECE" filter="url(#f1qmgjb6rwj0zo)" height="36.4883" rx="12.5" ry="12.5" style="stroke:#A80036;stroke-width:1.5;" width="62" x="954" y="1639.1602"/><text fill="#000000" font-family="sans-serif" font-size="14" lengthAdjust="spacing" textLength="42" x="964" y="1662.6953">Durga</text><path d="M904,1629.1602 L914,1629.1602 C929,1629.1602 929,1657.4043 944,1657.4043 L954,1657.4043 " fill="none" style="stroke:#A80036;stroke-width:1.0;"/><rect fill="#FEFECE" filter="url(#f1qmgjb6rwj0zo)" height="36.4883" rx="12.5" ry="12.5" style="stroke:#A80036;stroke-width:1.5;" width="108" x="954" y="1695.6484"/><text fill="#000000" font-family="sans-serif" font-size="14" lengthAdjust="spacing" textLength="88" x="964" y="1719.1836">Ratna Kumar</text><path d="M904,1629.1602 L914,1629.1602 C929,1629.1602 929,1713.8926 944,1713.8926 L954,1713.8926 " fill="none" style="stroke:#A80036;stroke-width:1.0;"/><path d="M792,1149.0098 L802,1149.0098 C817,1149.0098 817,1629.1602 832,1629.1602 L842,1629.1602 " fill="none" style="stroke:#A80036;stroke-width:1.0;"/><path d="M626,1487.9395 L636,1487.9395 C651,1487.9395 651,1149.0098 666,1149.0098 L676,1149.0098 " fill="none" style="stroke:#A80036;stroke-width:1.0;"/><rect fill="#FEFECE" filter="url(#f1qmgjb6rwj0zo)" height="36.4883" rx="12.5" ry="12.5" style="stroke:#A80036;stroke-width:1.5;" width="139" x="676" y="1865.1133"/><text fill="#000000" font-family="sans-serif" font-size="14" lengthAdjust="spacing" textLength="119" x="686" y="1888.6484">seetha rathamma</text><rect fill="#FEFECE" filter="url(#f1qmgjb6rwj0zo)" height="36.4883" rx="12.5" ry="12.5" style="stroke:#A80036;stroke-width:1.5;" width="50" x="865" y="1808.625"/><text fill="#000000" font-family="sans-serif" font-size="14" lengthAdjust="spacing" textLength="30" x="875" y="1832.1602">Rani</text><rect fill="#FEFECE" filter="url(#f1qmgjb6rwj0zo)" height="36.4883" rx="12.5" ry="12.5" style="stroke:#A80036;stroke-width:1.5;" width="145" x="965" y="1752.1367"/><text fill="#000000" font-family="sans-serif" font-size="14" lengthAdjust="spacing" textLength="125" x="975" y="1775.6719">Venkateswara Rao</text><path d="M915,1826.8691 L925,1826.8691 C940,1826.8691 940,1770.3809 955,1770.3809 L965,1770.3809 " fill="none" style="stroke:#A80036;stroke-width:1.0;"/><rect fill="#FEFECE" filter="url(#f1qmgjb6rwj0zo)" height="36.4883" rx="12.5" ry="12.5" style="stroke:#A80036;stroke-width:1.5;" width="60" x="965" y="1808.625"/><text fill="#000000" font-family="sans-serif" font-size="14" lengthAdjust="spacing" textLength="40" x="975" y="1832.1602">Eswar</text><path d="M915,1826.8691 L925,1826.8691 C940,1826.8691 940,1826.8691 955,1826.8691 L965,1826.8691 " fill="none" style="stroke:#A80036;stroke-width:1.0;"/><rect fill="#FEFECE" filter="url(#f1qmgjb6rwj0zo)" height="36.4883" rx="12.5" ry="12.5" style="stroke:#A80036;stroke-width:1.5;" width="58" x="965" y="1865.1133"/><text fill="#000000" font-family="sans-serif" font-size="14" lengthAdjust="spacing" textLength="38" x="975" y="1888.6484">Rajini</text><path d="M915,1826.8691 L925,1826.8691 C940,1826.8691 940,1883.3574 955,1883.3574 L965,1883.3574 " fill="none" style="stroke:#A80036;stroke-width:1.0;"/><path d="M815,1883.3574 L825,1883.3574 C840,1883.3574 840,1826.8691 855,1826.8691 L865,1826.8691 " fill="none" style="stroke:#A80036;stroke-width:1.0;"/><rect fill="#FEFECE" filter="url(#f1qmgjb6rwj0zo)" height="36.4883" rx="12.5" ry="12.5" style="stroke:#A80036;stroke-width:1.5;" width="66" x="865" y="1949.8457"/><text fill="#000000" font-family="sans-serif" font-size="14" lengthAdjust="spacing" textLength="46" x="875" y="1973.3809">Padma</text><rect fill="#FEFECE" filter="url(#f1qmgjb6rwj0zo)" height="36.4883" rx="12.5" ry="12.5" style="stroke:#A80036;stroke-width:1.5;" width="84" x="981" y="1921.6016"/><text fill="#000000" font-family="sans-serif" font-size="14" lengthAdjust="spacing" textLength="64" x="991" y="1945.1367">Mukunda</text><path d="M931,1968.0898 L941,1968.0898 C956,1968.0898 956,1939.8457 971,1939.8457 L981,1939.8457 " fill="none" style="stroke:#A80036;stroke-width:1.0;"/><rect fill="#FEFECE" filter="url(#f1qmgjb6rwj0zo)" height="36.4883" rx="12.5" ry="12.5" style="stroke:#A80036;stroke-width:1.5;" width="117" x="981" y="1978.0898"/><text fill="#000000" font-family="sans-serif" font-size="14" lengthAdjust="spacing" textLength="97" x="991" y="2001.625">Dhanalakshmi</text><path d="M931,1968.0898 L941,1968.0898 C956,1968.0898 956,1996.334 971,1996.334 L981,1996.334 " fill="none" style="stroke:#A80036;stroke-width:1.0;"/><path d="M815,1883.3574 L825,1883.3574 C840,1883.3574 840,1968.0898 855,1968.0898 L865,1968.0898 " fill="none" style="stroke:#A80036;stroke-width:1.0;"/><path d="M626,1487.9395 L636,1487.9395 C651,1487.9395 651,1883.3574 666,1883.3574 L676,1883.3574 " fill="none" style="stroke:#A80036;stroke-width:1.0;"/><rect fill="#FEFECE" filter="url(#f1qmgjb6rwj0zo)" height="36.4883" rx="12.5" ry="12.5" style="stroke:#A80036;stroke-width:1.5;" width="112" x="676" y="2062.8223"/><text fill="#000000" font-family="sans-serif" font-size="14" lengthAdjust="spacing" textLength="92" x="686" y="2086.3574">khadharbabu</text><rect fill="#FEFECE" filter="url(#f1qmgjb6rwj0zo)" height="36.4883" rx="12.5" ry="12.5" style="stroke:#A80036;stroke-width:1.5;" width="125" x="838" y="2034.5781"/><text fill="#000000" font-family="sans-serif" font-size="14" lengthAdjust="spacing" textLength="105" x="848" y="2058.1133">Kanthi Madhuri</text><rect fill="#FEFECE" filter="url(#f1qmgjb6rwj0zo)" height="36.4883" rx="12.5" ry="12.5" style="stroke:#A80036;stroke-width:1.5;" width="65" x="1013" y="2034.5781"/><text fill="#000000" font-family="sans-serif" font-size="14" lengthAdjust="spacing" textLength="45" x="1023" y="2058.1133">Gehari</text><path d="M963,2052.8223 L973,2052.8223 C988,2052.8223 988,2052.8223 1003,2052.8223 L1013,2052.8223 " fill="none" style="stroke:#A80036;stroke-width:1.0;"/><path d="M788,2081.0664 L798,2081.0664 C813,2081.0664 813,2052.8223 828,2052.8223 L838,2052.8223 " fill="none" style="stroke:#A80036;stroke-width:1.0;"/><rect fill="#FEFECE" filter="url(#f1qmgjb6rwj0zo)" height="36.4883" rx="12.5" ry="12.5" style="stroke:#A80036;stroke-width:1.5;" width="135" x="838" y="2091.0664"/><text fill="#000000" font-family="sans-serif" font-size="14" lengthAdjust="spacing" textLength="115" x="848" y="2114.6016">Lakshmi Neelima</text><rect fill="#FEFECE" filter="url(#f1qmgjb6rwj0zo)" height="36.4883" rx="12.5" ry="12.5" style="stroke:#A80036;stroke-width:1.5;" width="78" x="1023" y="2091.0664"/><text fill="#000000" font-family="sans-serif" font-size="14" lengthAdjust="spacing" textLength="58" x="1033" y="2114.6016">Vishruth</text><path d="M973,2109.3105 L983,2109.3105 C998,2109.3105 998,2109.3105 1013,2109.3105 L1023,2109.3105 " fill="none" style="stroke:#A80036;stroke-width:1.0;"/><path d="M788,2081.0664 L798,2081.0664 C813,2081.0664 813,2109.3105 828,2109.3105 L838,2109.3105 " fill="none" style="stroke:#A80036;stroke-width:1.0;"/><path d="M626,1487.9395 L636,1487.9395 C651,1487.9395 651,2081.0664 666,2081.0664 L676,2081.0664 " fill="none" style="stroke:#A80036;stroke-width:1.0;"/><rect fill="#FEFECE" filter="url(#f1qmgjb6rwj0zo)" height="36.4883" rx="12.5" ry="12.5" style="stroke:#A80036;stroke-width:1.5;" width="93" x="676" y="2204.043"/><text fill="#000000" font-family="sans-serif" font-size="14" lengthAdjust="spacing" textLength="73" x="686" y="2227.5781">chitti babu</text><rect fill="#FEFECE" filter="url(#f1qmgjb6rwj0zo)" height="36.4883" rx="12.5" ry="12.5" style="stroke:#A80036;stroke-width:1.5;" width="101" x="819" y="2147.5547"/><text fill="#000000" font-family="sans-serif" font-size="14" lengthAdjust="spacing" textLength="81" x="829" y="2171.0898">Kanthi Priya</text><rect fill="#FEFECE" filter="url(#f1qmgjb6rwj0zo)" height="36.4883" rx="12.5" ry="12.5" style="stroke:#A80036;stroke-width:1.5;" width="128" x="970" y="2147.5547"/><text fill="#000000" font-family="sans-serif" font-size="14" lengthAdjust="spacing" textLength="108" x="980" y="2171.0898">Samanvithanjali</text><path d="M920,2165.7988 L930,2165.7988 C945,2165.7988 945,2165.7988 960,2165.7988 L970,2165.7988 " fill="none" style="stroke:#A80036;stroke-width:1.0;"/><path d="M769,2222.2871 L779,2222.2871 C794,2222.2871 794,2165.7988 809,2165.7988 L819,2165.7988 " fill="none" style="stroke:#A80036;stroke-width:1.0;"/><rect fill="#FEFECE" filter="url(#f1qmgjb6rwj0zo)" height="36.4883" rx="12.5" ry="12.5" style="stroke:#A80036;stroke-width:1.5;" width="100" x="819" y="2232.2871"/><text fill="#000000" font-family="sans-serif" font-size="14" lengthAdjust="spacing" textLength="80" x="829" y="2255.8223">Santhi Priya</text><rect fill="#FEFECE" filter="url(#f1qmgjb6rwj0zo)" height="36.4883" rx="12.5" ry="12.5" style="stroke:#A80036;stroke-width:1.5;" width="72" x="969" y="2204.043"/><text fill="#000000" font-family="sans-serif" font-size="14" lengthAdjust="spacing" textLength="52" x="979" y="2227.5781">Anvitha</text><path d="M919,2250.5313 L929,2250.5313 C944,2250.5313 944,2222.2871 959,2222.2871 L969,2222.2871 " fill="none" style="stroke:#A80036;stroke-width:1.0;"/><rect fill="#FEFECE" filter="url(#f1qmgjb6rwj0zo)" height="36.4883" rx="12.5" ry="12.5" style="stroke:#A80036;stroke-width:1.5;" width="73" x="969" y="2260.5313"/><text fill="#000000" font-family="sans-serif" font-size="14" lengthAdjust="spacing" textLength="53" x="979" y="2284.0664">AAdhya</text><path d="M919,2250.5313 L929,2250.5313 C944,2250.5313 944,2278.7754 959,2278.7754 L969,2278.7754 " fill="none" style="stroke:#A80036;stroke-width:1.0;"/><path d="M769,2222.2871 L779,2222.2871 C794,2222.2871 794,2250.5313 809,2250.5313 L819,2250.5313 " fill="none" style="stroke:#A80036;stroke-width:1.0;"/><path d="M626,1487.9395 L636,1487.9395 C651,1487.9395 651,2222.2871 666,2222.2871 L676,2222.2871 " fill="none" style="stroke:#A80036;stroke-width:1.0;"/><rect fill="#FEFECE" filter="url(#f1qmgjb6rwj0zo)" height="36.4883" rx="12.5" ry="12.5" style="stroke:#A80036;stroke-width:1.5;" width="140" x="676" y="2345.2637"/><text fill="#000000" font-family="sans-serif" font-size="14" lengthAdjust="spacing" textLength="120" x="686" y="2368.7988">venkateswara rao</text><rect fill="#FEFECE" filter="url(#f1qmgjb6rwj0zo)" height="36.4883" rx="12.5" ry="12.5" style="stroke:#A80036;stroke-width:1.5;" width="75" x="866" y="2317.0195"/><text fill="#000000" font-family="sans-serif" font-size="14" lengthAdjust="spacing" textLength="55" x="876" y="2340.5547">sukanth</text><path d="M816,2363.5078 L826,2363.5078 C841,2363.5078 841,2335.2637 856,2335.2637 L866,2335.2637 " fill="none" style="stroke:#A80036;stroke-width:1.0;"/><rect fill="#FEFECE" filter="url(#f1qmgjb6rwj0zo)" height="36.4883" rx="12.5" ry="12.5" style="stroke:#A80036;stroke-width:1.5;" width="80" x="866" y="2373.5078"/><text fill="#000000" font-family="sans-serif" font-size="14" lengthAdjust="spacing" textLength="60" x="876" y="2397.043">sumanth</text><path d="M816,2363.5078 L826,2363.5078 C841,2363.5078 841,2391.752 856,2391.752 L866,2391.752 " fill="none" style="stroke:#A80036;stroke-width:1.0;"/><path d="M626,1487.9395 L636,1487.9395 C651,1487.9395 651,2363.5078 666,2363.5078 L676,2363.5078 " fill="none" style="stroke:#A80036;stroke-width:1.0;"/><path d="M275,1487.9395 L285,1487.9395 C300,1487.9395 300,1487.9395 315,1487.9395 L325,1487.9395 " fill="none" style="stroke:#A80036;stroke-width:1.0;"/><path d="M99,1459.6953 L109,1459.6953 C124,1459.6953 124,1487.9395 139,1487.9395 L149,1487.9395 " fill="none" style="stroke:#A80036;stroke-width:1.0;"/><rect fill="#FEFECE" filter="url(#f1qmgjb6rwj0zo)" height="36.4883" rx="12.5" ry="12.5" style="stroke:#A80036;stroke-width:1.5;" width="81" x="149" y="2599.4609"/><text fill="#000000" font-family="sans-serif" font-size="14" lengthAdjust="spacing" textLength="61" x="159" y="2622.9961">mattayya</text><rect fill="#FEFECE" filter="url(#f1qmgjb6rwj0zo)" height="36.4883" rx="12.5" ry="12.5" style="stroke:#A80036;stroke-width:1.5;" width="26" x="280" y="2429.9961"/><text fill="#000000" font-family="sans-serif" font-size="14" lengthAdjust="spacing" textLength="6" x="290" y="2453.5313">?</text><path d="M230,2617.7051 L240,2617.7051 C255,2617.7051 255,2448.2402 270,2448.2402 L280,2448.2402 " fill="none" style="stroke:#A80036;stroke-width:1.0;"/><rect fill="#FEFECE" filter="url(#f1qmgjb6rwj0zo)" height="36.4883" rx="12.5" ry="12.5" style="stroke:#A80036;stroke-width:1.5;" width="270" x="280" y="2486.4844"/><text fill="#000000" font-family="sans-serif" font-size="14" lengthAdjust="spacing" textLength="250" x="290" y="2510.0195">Venkata Subbarao ( #1 Original Son)</text><path d="M230,2617.7051 L240,2617.7051 C255,2617.7051 255,2504.7285 270,2504.7285 L280,2504.7285 " fill="none" style="stroke:#A80036;stroke-width:1.0;"/><rect fill="#FEFECE" filter="url(#f1qmgjb6rwj0zo)" height="36.4883" rx="12.5" ry="12.5" style="stroke:#A80036;stroke-width:1.5;" width="72" x="280" y="2627.7051"/><text fill="#000000" font-family="sans-serif" font-size="14" lengthAdjust="spacing" textLength="52" x="290" y="2651.2402">Ramulu</text><rect fill="#FEFECE" filter="url(#f1qmgjb6rwj0zo)" height="36.4883" rx="12.5" ry="12.5" style="stroke:#A80036;stroke-width:1.5;" width="141" x="402" y="2542.9727"/><text fill="#000000" font-family="sans-serif" font-size="14" lengthAdjust="spacing" textLength="121" x="412" y="2566.5078">Pedda anjaneyulu</text><path d="M352,2645.9492 L362,2645.9492 C377,2645.9492 377,2561.2168 392,2561.2168 L402,2561.2168 " fill="none" style="stroke:#A80036;stroke-width:1.0;"/><rect fill="#FEFECE" filter="url(#f1qmgjb6rwj0zo)" height="36.4883" rx="12.5" ry="12.5" style="stroke:#A80036;stroke-width:1.5;" width="148" x="402" y="2599.4609"/><text fill="#000000" font-family="sans-serif" font-size="14" lengthAdjust="spacing" textLength="128" x="412" y="2622.9961">Chinna anjaneyulu</text><path d="M352,2645.9492 L362,2645.9492 C377,2645.9492 377,2617.7051 392,2617.7051 L402,2617.7051 " fill="none" style="stroke:#A80036;stroke-width:1.0;"/><rect fill="#FEFECE" filter="url(#f1qmgjb6rwj0zo)" height="36.4883" rx="12.5" ry="12.5" style="stroke:#A80036;stroke-width:1.5;" width="133" x="402" y="2655.9492"/><text fill="#000000" font-family="sans-serif" font-size="14" lengthAdjust="spacing" textLength="113" x="412" y="2679.4844">chitti anjaneyulu</text><path d="M352,2645.9492 L362,2645.9492 C377,2645.9492 377,2674.1934 392,2674.1934 L402,2674.1934 " fill="none" style="stroke:#A80036;stroke-width:1.0;"/><rect fill="#FEFECE" filter="url(#f1qmgjb6rwj0zo)" height="36.4883" rx="12.5" ry="12.5" style="stroke:#A80036;stroke-width:1.5;" width="136" x="402" y="2712.4375"/><text fill="#000000" font-family="sans-serif" font-size="14" lengthAdjust="spacing" textLength="116" x="412" y="2735.9727">veera anjaneyulu</text><path d="M352,2645.9492 L362,2645.9492 C377,2645.9492 377,2730.6816 392,2730.6816 L402,2730.6816 " fill="none" style="stroke:#A80036;stroke-width:1.0;"/><path d="M230,2617.7051 L240,2617.7051 C255,2617.7051 255,2645.9492 270,2645.9492 L280,2645.9492 " fill="none" style="stroke:#A80036;stroke-width:1.0;"/><rect fill="#FEFECE" filter="url(#f1qmgjb6rwj0zo)" height="36.4883" rx="12.5" ry="12.5" style="stroke:#A80036;stroke-width:1.5;" width="71" x="280" y="2768.9258"/><text fill="#000000" font-family="sans-serif" font-size="14" lengthAdjust="spacing" textLength="51" x="290" y="2792.4609">Suryam</text><rect fill="#FEFECE" filter="url(#f1qmgjb6rwj0zo)" height="36.4883" rx="12.5" ry="12.5" style="stroke:#A80036;stroke-width:1.5;" width="185" x="401" y="2768.9258"/><text fill="#000000" font-family="sans-serif" font-size="14" lengthAdjust="spacing" textLength="165" x="411" y="2792.4609">Ravi (dattata kumarudu)</text><path d="M351,2787.1699 L361,2787.1699 C376,2787.1699 376,2787.1699 391,2787.1699 L401,2787.1699 " fill="none" style="stroke:#A80036;stroke-width:1.0;"/><path d="M230,2617.7051 L240,2617.7051 C255,2617.7051 255,2787.1699 270,2787.1699 L280,2787.1699 " fill="none" style="stroke:#A80036;stroke-width:1.0;"/><path d="M99,1459.6953 L109,1459.6953 C124,1459.6953 124,2617.7051 139,2617.7051 L149,2617.7051 " fill="none" style="stroke:#A80036;stroke-width:1.0;"/><rect fill="#FEFECE" filter="url(#f1qmgjb6rwj0zo)" height="36.4883" rx="12.5" ry="12.5" style="stroke:#A80036;stroke-width:1.5;" width="81" x="149" y="2825.4141"/><text fill="#000000" font-family="sans-serif" font-size="14" lengthAdjust="spacing" textLength="61" x="159" y="2848.9492">rammiah</text><rect fill="#FEFECE" filter="url(#f1qmgjb6rwj0zo)" height="36.4883" rx="12.5" ry="12.5" style="stroke:#A80036;stroke-width:1.5;" width="86" x="280" y="2825.4141"/><text fill="#000000" font-family="sans-serif" font-size="14" lengthAdjust="spacing" textLength="66" x="290" y="2848.9492">Subbarao</text><rect fill="#FEFECE" filter="url(#f1qmgjb6rwj0zo)" height="36.4883" rx="12.5" ry="12.5" style="stroke:#A80036;stroke-width:1.5;" width="63" x="416" y="2825.4141"/><text fill="#000000" font-family="sans-serif" font-size="14" lengthAdjust="spacing" textLength="43" x="426" y="2848.9492">Ranga</text><path d="M366,2843.6582 L376,2843.6582 C391,2843.6582 391,2843.6582 406,2843.6582 L416,2843.6582 " fill="none" style="stroke:#A80036;stroke-width:1.0;"/><path d="M230,2843.6582 L240,2843.6582 C255,2843.6582 255,2843.6582 270,2843.6582 L280,2843.6582 " fill="none" style="stroke:#A80036;stroke-width:1.0;"/><path d="M99,1459.6953 L109,1459.6953 C124,1459.6953 124,2843.6582 139,2843.6582 L149,2843.6582 " fill="none" style="stroke:#A80036;stroke-width:1.0;"/><!--MD5=[877a1b9c3a00c8876574ec821b5a80c0]
@startmindmap
title: Family Tree
* guravayya
  ** pedda kottaiah
    *** kasiah
        **** prakash rao
            ***** Suseela
            ***** ?
            ***** kasiah
                ****** rama
                    ******* Sireesha
                    ******* Chandra Kanth
                ****** prakash
                    ******* Supriya
                    ******* Karthik
                ****** kumar
                    ******* Meghana
                ****** sekhar
                    ******* Tejesh
                    ******* Akash
            ***** Ramana
            ***** ?
  ** chinna kottaiah
    *** dattata kumarudu venkata subbarao (#1)
        **** anasuryamma
            ***** Mohan Rao
                ****** Nagamani
                ****** Jaalu
            ***** Muralidhar Rao
                ****** Prasad
            ***** Ranga Rao
                ****** Seshu
                ****** Kusuma
                ****** Upendra
            ***** Srinivasa Rao
                ****** Deepthi
                ****** Sudha Rani
                ****** Vamsi Krishna
            ***** Rama Krishna
                ****** Sharmila
                ****** Sireesha
                ****** Swapna
                ****** Swetha
            ***** Prabhakar Rao
                ****** Aparna
                ****** Sunil Mahanth
            ***** Sarada
                ****** Naga Mani
                ****** Naga Leela
            ***** Aruna
                ****** Pushpa
                ****** Lakshmi Prasanna
                ****** Durga
                ****** Ratna Kumar
        **** seetha rathamma
            ***** Rani
                ****** Venkateswara Rao
                ****** Eswar
                ****** Rajini
            ***** Padma
                ****** Mukunda
                ****** Dhanalakshmi
        **** khadharbabu
            ***** Kanthi Madhuri
                ****** Gehari
            ***** Lakshmi Neelima
                ****** Vishruth
        **** chitti babu
            ***** Kanthi Priya
                ****** Samanvithanjali
            ***** Santhi Priya
                ****** Anvitha
                ****** AAdhya
        **** venkateswara rao
            ***** sukanth
            ***** sumanth
  ** mattayya
    *** ?
    *** Venkata Subbarao ( #1 Original Son)
    *** Ramulu
        **** Pedda anjaneyulu
        **** Chinna anjaneyulu
        **** chitti anjaneyulu
        **** veera anjaneyulu

    *** Suryam
        **** Ravi (dattata kumarudu)
  ** rammiah
    *** Subbarao
        **** Ranga
@endmindmap

PlantUML version 1.2021.11(Sat Oct 02 08:26:11 CDT 2021)
(GPL source distribution)
Java Runtime: OpenJDK Runtime Environment
JVM: OpenJDK 64-Bit Server VM
Default Encoding: UTF-8
Language: en
Country: US
--></g></svg>