<?xml version="1.0" encoding="UTF-8" standalone="no"?><svg xmlns="http://www.w3.org/2000/svg" xmlns:xlink="http://www.w3.org/1999/xlink" contentScriptType="application/ecmascript" contentStyleType="text/css" height="2928px" preserveAspectRatio="none" style="width:1149px;height:2928px;background:#FFFFFF;" version="1.1" viewBox="0 0 1149 2928" width="1149px" zoomAndPan="magnify"><defs><filter height="300%" id="fcgar1wupug57" width="300%" x="-1" y="-1"><feGaussianBlur result="blurOut" stdDeviation="2.0"/><feColorMatrix in="blurOut" result="blurOut2" type="matrix" values="0 0 0 0 0 0 0 0 0 0 0 0 0 0 0 0 0 0 .4 0"/><feOffset dx="4.0" dy="4.0" in="blurOut2" result="blurOut3"/><feBlend in="SourceGraphic" in2="blurOut3" mode="normal"/></filter></defs><g><rect fill="none" height="11.7773" style="stroke:none;stroke-width:1.0;" width="127" x="952" y="10"/><text fill="#888888" font-family="sans-serif" font-size="10" lengthAdjust="spacing" textLength="127" x="952" y="19.668">Drafted by Sukanth Gunda</text><rect fill="none" height="26.4883" style="stroke:none;stroke-width:1.0;" width="95" x="497" y="27.7773"/><text fill="#000000" font-family="sans-serif" font-size="14" font-weight="bold" lengthAdjust="spacing" textLength="85" x="502" y="46.3125">Family Tree</text><rect fill="#FEFECE" filter="url(#fcgar1wupug57)" height="36.4883" rx="12.5" ry="12.5" style="stroke:#A80036;stroke-width:1.5;" width="89" x="10" y="1454.2285"/><text fill="#000000" font-family="sans-serif" font-size="14" lengthAdjust="spacing" textLength="69" x="20" y="1477.7637">guravayya</text><rect fill="#FEFECE" filter="url(#fcgar1wupug57)" height="36.4883" rx="12.5" ry="12.5" style="stroke:#A80036;stroke-width:1.5;" width="123" x="149" y="296.2188"/><text fill="#000000" font-family="sans-serif" font-size="14" lengthAdjust="spacing" textLength="103" x="159" y="319.7539">pedda kottaiah</text><rect fill="#FEFECE" filter="url(#fcgar1wupug57)" height="36.4883" rx="12.5" ry="12.5" style="stroke:#A80036;stroke-width:1.5;" width="64" x="322" y="296.2188"/><text fill="#000000" font-family="sans-serif" font-size="14" lengthAdjust="spacing" textLength="44" x="332" y="319.7539">kasiah</text><rect fill="#FEFECE" filter="url(#fcgar1wupug57)" height="36.4883" rx="12.5" ry="12.5" style="stroke:#A80036;stroke-width:1.5;" width="102" x="436" y="296.2188"/><text fill="#000000" font-family="sans-serif" font-size="14" lengthAdjust="spacing" textLength="82" x="446" y="319.7539">prakash rao</text><rect fill="#FEFECE" filter="url(#fcgar1wupug57)" height="36.4883" rx="12.5" ry="12.5" style="stroke:#A80036;stroke-width:1.5;" width="72" x="588" y="126.7539"/><text fill="#000000" font-family="sans-serif" font-size="14" lengthAdjust="spacing" textLength="52" x="598" y="150.2891">Suseela</text><path d="M538,314.4629 L548,314.4629 C563,314.4629 563,144.998 578,144.998 L588,144.998 " fill="none" style="stroke:#A80036;stroke-width:1.0;"/><rect fill="#FEFECE" filter="url(#fcgar1wupug57)" height="36.4883" rx="12.5" ry="12.5" style="stroke:#A80036;stroke-width:1.5;" width="26" x="588" y="183.2422"/><text fill="#000000" font-family="sans-serif" font-size="14" lengthAdjust="spacing" textLength="6" x="598" y="206.7773">?</text><path d="M538,314.4629 L548,314.4629 C563,314.4629 563,201.4863 578,201.4863 L588,201.4863 " fill="none" style="stroke:#A80036;stroke-width:1.0;"/><rect fill="#FEFECE" filter="url(#fcgar1wupug57)" height="36.4883" rx="12.5" ry="12.5" style="stroke:#A80036;stroke-width:1.5;" width="64" x="588" y="239.7305"/><text fill="#000000" font-family="sans-serif" font-size="14" lengthAdjust="spacing" textLength="44" x="598" y="263.2656">kasiah</text><rect fill="#FEFECE" filter="url(#fcgar1wupug57)" height="36.4883" rx="12.5" ry="12.5" style="stroke:#A80036;stroke-width:1.5;" width="55" x="702" y="98.5098"/><text fill="#000000" font-family="sans-serif" font-size="14" lengthAdjust="spacing" textLength="35" x="712" y="122.0449">rama</text><rect fill="#FEFECE" filter="url(#fcgar1wupug57)" height="36.4883" rx="12.5" ry="12.5" style="stroke:#A80036;stroke-width:1.5;" width="78" x="807" y="70.2656"/><text fill="#000000" font-family="sans-serif" font-size="14" lengthAdjust="spacing" textLength="58" x="817" y="93.8008">Sireesha</text><path d="M757,116.7539 L767,116.7539 C782,116.7539 782,88.5098 797,88.5098 L807,88.5098 " fill="none" style="stroke:#A80036;stroke-width:1.0;"/><rect fill="#FEFECE" filter="url(#fcgar1wupug57)" height="36.4883" rx="12.5" ry="12.5" style="stroke:#A80036;stroke-width:1.5;" width="123" x="807" y="126.7539"/><text fill="#000000" font-family="sans-serif" font-size="14" lengthAdjust="spacing" textLength="103" x="817" y="150.2891">Chandra Kanth</text><path d="M757,116.7539 L767,116.7539 C782,116.7539 782,144.998 797,144.998 L807,144.998 " fill="none" style="stroke:#A80036;stroke-width:1.0;"/><path d="M652,257.9746 L662,257.9746 C677,257.9746 677,116.7539 692,116.7539 L702,116.7539 " fill="none" style="stroke:#A80036;stroke-width:1.0;"/><rect fill="#FEFECE" filter="url(#fcgar1wupug57)" height="36.4883" rx="12.5" ry="12.5" style="stroke:#A80036;stroke-width:1.5;" width="75" x="702" y="211.4863"/><text fill="#000000" font-family="sans-serif" font-size="14" lengthAdjust="spacing" textLength="55" x="712" y="235.0215">prakash</text><rect fill="#FEFECE" filter="url(#fcgar1wupug57)" height="36.4883" rx="12.5" ry="12.5" style="stroke:#A80036;stroke-width:1.5;" width="71" x="827" y="183.2422"/><text fill="#000000" font-family="sans-serif" font-size="14" lengthAdjust="spacing" textLength="51" x="837" y="206.7773">Supriya</text><path d="M777,229.7305 L787,229.7305 C802,229.7305 802,201.4863 817,201.4863 L827,201.4863 " fill="none" style="stroke:#A80036;stroke-width:1.0;"/><rect fill="#FEFECE" filter="url(#fcgar1wupug57)" height="36.4883" rx="12.5" ry="12.5" style="stroke:#A80036;stroke-width:1.5;" width="69" x="827" y="239.7305"/><text fill="#000000" font-family="sans-serif" font-size="14" lengthAdjust="spacing" textLength="49" x="837" y="263.2656">Karthik</text><path d="M777,229.7305 L787,229.7305 C802,229.7305 802,257.9746 817,257.9746 L827,257.9746 " fill="none" style="stroke:#A80036;stroke-width:1.0;"/><path d="M652,257.9746 L662,257.9746 C677,257.9746 677,229.7305 692,229.7305 L702,229.7305 " fill="none" style="stroke:#A80036;stroke-width:1.0;"/><rect fill="#FEFECE" filter="url(#fcgar1wupug57)" height="36.4883" rx="12.5" ry="12.5" style="stroke:#A80036;stroke-width:1.5;" width="64" x="702" y="296.2188"/><text fill="#000000" font-family="sans-serif" font-size="14" lengthAdjust="spacing" textLength="44" x="712" y="319.7539">kumar</text><rect fill="#FEFECE" filter="url(#fcgar1wupug57)" height="36.4883" rx="12.5" ry="12.5" style="stroke:#A80036;stroke-width:1.5;" width="83" x="816" y="296.2188"/><text fill="#000000" font-family="sans-serif" font-size="14" lengthAdjust="spacing" textLength="63" x="826" y="319.7539">Meghana</text><path d="M766,314.4629 L776,314.4629 C791,314.4629 791,314.4629 806,314.4629 L816,314.4629 " fill="none" style="stroke:#A80036;stroke-width:1.0;"/><path d="M652,257.9746 L662,257.9746 C677,257.9746 677,314.4629 692,314.4629 L702,314.4629 " fill="none" style="stroke:#A80036;stroke-width:1.0;"/><rect fill="#FEFECE" filter="url(#fcgar1wupug57)" height="36.4883" rx="12.5" ry="12.5" style="stroke:#A80036;stroke-width:1.5;" width="66" x="702" y="380.9512"/><text fill="#000000" font-family="sans-serif" font-size="14" lengthAdjust="spacing" textLength="46" x="712" y="404.4863">sekhar</text><rect fill="#FEFECE" filter="url(#fcgar1wupug57)" height="36.4883" rx="12.5" ry="12.5" style="stroke:#A80036;stroke-width:1.5;" width="65" x="818" y="352.707"/><text fill="#000000" font-family="sans-serif" font-size="14" lengthAdjust="spacing" textLength="45" x="828" y="376.2422">Tejesh</text><path d="M768,399.1953 L778,399.1953 C793,399.1953 793,370.9512 808,370.9512 L818,370.9512 " fill="none" style="stroke:#A80036;stroke-width:1.0;"/><rect fill="#FEFECE" filter="url(#fcgar1wupug57)" height="36.4883" rx="12.5" ry="12.5" style="stroke:#A80036;stroke-width:1.5;" width="62" x="818" y="409.1953"/><text fill="#000000" font-family="sans-serif" font-size="14" lengthAdjust="spacing" textLength="42" x="828" y="432.7305">Akash</text><path d="M768,399.1953 L778,399.1953 C793,399.1953 793,427.4395 808,427.4395 L818,427.4395 " fill="none" style="stroke:#A80036;stroke-width:1.0;"/><path d="M652,257.9746 L662,257.9746 C677,257.9746 677,399.1953 692,399.1953 L702,399.1953 " fill="none" style="stroke:#A80036;stroke-width:1.0;"/><path d="M538,314.4629 L548,314.4629 C563,314.4629 563,257.9746 578,257.9746 L588,257.9746 " fill="none" style="stroke:#A80036;stroke-width:1.0;"/><rect fill="#FEFECE" filter="url(#fcgar1wupug57)" height="36.4883" rx="12.5" ry="12.5" style="stroke:#A80036;stroke-width:1.5;" width="75" x="588" y="465.6836"/><text fill="#000000" font-family="sans-serif" font-size="14" lengthAdjust="spacing" textLength="55" x="598" y="489.2188">Ramana</text><path d="M538,314.4629 L548,314.4629 C563,314.4629 563,483.9277 578,483.9277 L588,483.9277 " fill="none" style="stroke:#A80036;stroke-width:1.0;"/><rect fill="#FEFECE" filter="url(#fcgar1wupug57)" height="36.4883" rx="12.5" ry="12.5" style="stroke:#A80036;stroke-width:1.5;" width="26" x="588" y="522.1719"/><text fill="#000000" font-family="sans-serif" font-size="14" lengthAdjust="spacing" textLength="6" x="598" y="545.707">?</text><path d="M538,314.4629 L548,314.4629 C563,314.4629 563,540.416 578,540.416 L588,540.416 " fill="none" style="stroke:#A80036;stroke-width:1.0;"/><path d="M386,314.4629 L396,314.4629 C411,314.4629 411,314.4629 426,314.4629 L436,314.4629 " fill="none" style="stroke:#A80036;stroke-width:1.0;"/><path d="M272,314.4629 L282,314.4629 C297,314.4629 297,314.4629 312,314.4629 L322,314.4629 " fill="none" style="stroke:#A80036;stroke-width:1.0;"/><path d="M99,1472.4727 L109,1472.4727 C124,1472.4727 124,314.4629 139,314.4629 L149,314.4629 " fill="none" style="stroke:#A80036;stroke-width:1.0;"/><rect fill="#FEFECE" filter="url(#fcgar1wupug57)" height="36.4883" rx="12.5" ry="12.5" style="stroke:#A80036;stroke-width:1.5;" width="126" x="149" y="1482.4727"/><text fill="#000000" font-family="sans-serif" font-size="14" lengthAdjust="spacing" textLength="106" x="159" y="1506.0078">chinna kottaiah</text><rect fill="#FEFECE" filter="url(#fcgar1wupug57)" height="36.4883" rx="12.5" ry="12.5" style="stroke:#A80036;stroke-width:1.5;" width="301" x="325" y="1482.4727"/><text fill="#000000" font-family="sans-serif" font-size="14" lengthAdjust="spacing" textLength="281" x="335" y="1506.0078">dattata kumarudu venkata subbarao (#1)</text><rect fill="#FEFECE" filter="url(#fcgar1wupug57)" height="36.4883" rx="12.5" ry="12.5" style="stroke:#A80036;stroke-width:1.5;" width="116" x="676" y="1143.543"/><text fill="#000000" font-family="sans-serif" font-size="14" lengthAdjust="spacing" textLength="96" x="686" y="1167.0781">anasuryamma</text><rect fill="#FEFECE" filter="url(#fcgar1wupug57)" height="36.4883" rx="12.5" ry="12.5" style="stroke:#A80036;stroke-width:1.5;" width="97" x="842" y="606.9043"/><text fill="#000000" font-family="sans-serif" font-size="14" lengthAdjust="spacing" textLength="77" x="852" y="630.4395">Mohan Rao</text><rect fill="#FEFECE" filter="url(#fcgar1wupug57)" height="36.4883" rx="12.5" ry="12.5" style="stroke:#A80036;stroke-width:1.5;" width="89" x="989" y="578.6602"/><text fill="#000000" font-family="sans-serif" font-size="14" lengthAdjust="spacing" textLength="69" x="999" y="602.1953">Nagamani</text><path d="M939,625.1484 L949,625.1484 C964,625.1484 964,596.9043 979,596.9043 L989,596.9043 " fill="none" style="stroke:#A80036;stroke-width:1.0;"/><rect fill="#FEFECE" filter="url(#fcgar1wupug57)" height="36.4883" rx="12.5" ry="12.5" style="stroke:#A80036;stroke-width:1.5;" width="53" x="989" y="635.1484"/><text fill="#000000" font-family="sans-serif" font-size="14" lengthAdjust="spacing" textLength="33" x="999" y="658.6836">Jaalu</text><path d="M939,625.1484 L949,625.1484 C964,625.1484 964,653.3926 979,653.3926 L989,653.3926 " fill="none" style="stroke:#A80036;stroke-width:1.0;"/><path d="M792,1161.7871 L802,1161.7871 C817,1161.7871 817,625.1484 832,625.1484 L842,625.1484 " fill="none" style="stroke:#A80036;stroke-width:1.0;"/><rect fill="#FEFECE" filter="url(#fcgar1wupug57)" height="36.4883" rx="12.5" ry="12.5" style="stroke:#A80036;stroke-width:1.5;" width="125" x="842" y="691.6367"/><text fill="#000000" font-family="sans-serif" font-size="14" lengthAdjust="spacing" textLength="105" x="852" y="715.1719">Muralidhar Rao</text><rect fill="#FEFECE" filter="url(#fcgar1wupug57)" height="36.4883" rx="12.5" ry="12.5" style="stroke:#A80036;stroke-width:1.5;" width="66" x="1017" y="691.6367"/><text fill="#000000" font-family="sans-serif" font-size="14" lengthAdjust="spacing" textLength="46" x="1027" y="715.1719">Prasad</text><path d="M967,709.8809 L977,709.8809 C992,709.8809 992,709.8809 1007,709.8809 L1017,709.8809 " fill="none" style="stroke:#A80036;stroke-width:1.0;"/><path d="M792,1161.7871 L802,1161.7871 C817,1161.7871 817,709.8809 832,709.8809 L842,709.8809 " fill="none" style="stroke:#A80036;stroke-width:1.0;"/><rect fill="#FEFECE" filter="url(#fcgar1wupug57)" height="36.4883" rx="12.5" ry="12.5" style="stroke:#A80036;stroke-width:1.5;" width="93" x="842" y="804.6133"/><text fill="#000000" font-family="sans-serif" font-size="14" lengthAdjust="spacing" textLength="73" x="852" y="828.1484">Ranga Rao</text><rect fill="#FEFECE" filter="url(#fcgar1wupug57)" height="36.4883" rx="12.5" ry="12.5" style="stroke:#A80036;stroke-width:1.5;" width="61" x="985" y="748.125"/><text fill="#000000" font-family="sans-serif" font-size="14" lengthAdjust="spacing" textLength="41" x="995" y="771.6602">Seshu</text><path d="M935,822.8574 L945,822.8574 C960,822.8574 960,766.3691 975,766.3691 L985,766.3691 " fill="none" style="stroke:#A80036;stroke-width:1.0;"/><rect fill="#FEFECE" filter="url(#fcgar1wupug57)" height="36.4883" rx="12.5" ry="12.5" style="stroke:#A80036;stroke-width:1.5;" width="75" x="985" y="804.6133"/><text fill="#000000" font-family="sans-serif" font-size="14" lengthAdjust="spacing" textLength="55" x="995" y="828.1484">Kusuma</text><path d="M935,822.8574 L945,822.8574 C960,822.8574 960,822.8574 975,822.8574 L985,822.8574 " fill="none" style="stroke:#A80036;stroke-width:1.0;"/><rect fill="#FEFECE" filter="url(#fcgar1wupug57)" height="36.4883" rx="12.5" ry="12.5" style="stroke:#A80036;stroke-width:1.5;" width="79" x="985" y="861.1016"/><text fill="#000000" font-family="sans-serif" font-size="14" lengthAdjust="spacing" textLength="59" x="995" y="884.6367">Upendra</text><path d="M935,822.8574 L945,822.8574 C960,822.8574 960,879.3457 975,879.3457 L985,879.3457 " fill="none" style="stroke:#A80036;stroke-width:1.0;"/><path d="M792,1161.7871 L802,1161.7871 C817,1161.7871 817,822.8574 832,822.8574 L842,822.8574 " fill="none" style="stroke:#A80036;stroke-width:1.0;"/><rect fill="#FEFECE" filter="url(#fcgar1wupug57)" height="36.4883" rx="12.5" ry="12.5" style="stroke:#A80036;stroke-width:1.5;" width="111" x="842" y="974.0781"/><text fill="#000000" font-family="sans-serif" font-size="14" lengthAdjust="spacing" textLength="91" x="852" y="997.6133">Srinivasa Rao</text><rect fill="#FEFECE" filter="url(#fcgar1wupug57)" height="36.4883" rx="12.5" ry="12.5" style="stroke:#A80036;stroke-width:1.5;" width="73" x="1003" y="917.5898"/><text fill="#000000" font-family="sans-serif" font-size="14" lengthAdjust="spacing" textLength="53" x="1013" y="941.125">Deepthi</text><path d="M953,992.3223 L963,992.3223 C978,992.3223 978,935.834 993,935.834 L1003,935.834 " fill="none" style="stroke:#A80036;stroke-width:1.0;"/><rect fill="#FEFECE" filter="url(#fcgar1wupug57)" height="36.4883" rx="12.5" ry="12.5" style="stroke:#A80036;stroke-width:1.5;" width="97" x="1003" y="974.0781"/><text fill="#000000" font-family="sans-serif" font-size="14" lengthAdjust="spacing" textLength="77" x="1013" y="997.6133">Sudha Rani</text><path d="M953,992.3223 L963,992.3223 C978,992.3223 978,992.3223 993,992.3223 L1003,992.3223 " fill="none" style="stroke:#A80036;stroke-width:1.0;"/><rect fill="#FEFECE" filter="url(#fcgar1wupug57)" height="36.4883" rx="12.5" ry="12.5" style="stroke:#A80036;stroke-width:1.5;" width="117" x="1003" y="1030.5664"/><text fill="#000000" font-family="sans-serif" font-size="14" lengthAdjust="spacing" textLength="97" x="1013" y="1054.1016">Vamsi Krishna</text><path d="M953,992.3223 L963,992.3223 C978,992.3223 978,1048.8105 993,1048.8105 L1003,1048.8105 " fill="none" style="stroke:#A80036;stroke-width:1.0;"/><path d="M792,1161.7871 L802,1161.7871 C817,1161.7871 817,992.3223 832,992.3223 L842,992.3223 " fill="none" style="stroke:#A80036;stroke-width:1.0;"/><rect fill="#FEFECE" filter="url(#fcgar1wupug57)" height="36.4883" rx="12.5" ry="12.5" style="stroke:#A80036;stroke-width:1.5;" width="114" x="842" y="1171.7871"/><text fill="#000000" font-family="sans-serif" font-size="14" lengthAdjust="spacing" textLength="94" x="852" y="1195.3223">Rama Krishna</text><rect fill="#FEFECE" filter="url(#fcgar1wupug57)" height="36.4883" rx="12.5" ry="12.5" style="stroke:#A80036;stroke-width:1.5;" width="80" x="1006" y="1087.0547"/><text fill="#000000" font-family="sans-serif" font-size="14" lengthAdjust="spacing" textLength="60" x="1016" y="1110.5898">Sharmila</text><path d="M956,1190.0313 L966,1190.0313 C981,1190.0313 981,1105.2988 996,1105.2988 L1006,1105.2988 " fill="none" style="stroke:#A80036;stroke-width:1.0;"/><rect fill="#FEFECE" filter="url(#fcgar1wupug57)" height="36.4883" rx="12.5" ry="12.5" style="stroke:#A80036;stroke-width:1.5;" width="78" x="1006" y="1143.543"/><text fill="#000000" font-family="sans-serif" font-size="14" lengthAdjust="spacing" textLength="58" x="1016" y="1167.0781">Sireesha</text><path d="M956,1190.0313 L966,1190.0313 C981,1190.0313 981,1161.7871 996,1161.7871 L1006,1161.7871 " fill="none" style="stroke:#A80036;stroke-width:1.0;"/><rect fill="#FEFECE" filter="url(#fcgar1wupug57)" height="36.4883" rx="12.5" ry="12.5" style="stroke:#A80036;stroke-width:1.5;" width="73" x="1006" y="1200.0313"/><text fill="#000000" font-family="sans-serif" font-size="14" lengthAdjust="spacing" textLength="53" x="1016" y="1223.5664">Swapna</text><path d="M956,1190.0313 L966,1190.0313 C981,1190.0313 981,1218.2754 996,1218.2754 L1006,1218.2754 " fill="none" style="stroke:#A80036;stroke-width:1.0;"/><rect fill="#FEFECE" filter="url(#fcgar1wupug57)" height="36.4883" rx="12.5" ry="12.5" style="stroke:#A80036;stroke-width:1.5;" width="69" x="1006" y="1256.5195"/><text fill="#000000" font-family="sans-serif" font-size="14" lengthAdjust="spacing" textLength="49" x="1016" y="1280.0547">Swetha</text><path d="M956,1190.0313 L966,1190.0313 C981,1190.0313 981,1274.7637 996,1274.7637 L1006,1274.7637 " fill="none" style="stroke:#A80036;stroke-width:1.0;"/><path d="M792,1161.7871 L802,1161.7871 C817,1161.7871 817,1190.0313 832,1190.0313 L842,1190.0313 " fill="none" style="stroke:#A80036;stroke-width:1.0;"/><rect fill="#FEFECE" filter="url(#fcgar1wupug57)" height="36.4883" rx="12.5" ry="12.5" style="stroke:#A80036;stroke-width:1.5;" width="120" x="842" y="1341.252"/><text fill="#000000" font-family="sans-serif" font-size="14" lengthAdjust="spacing" textLength="100" x="852" y="1364.7871">Prabhakar Rao</text><rect fill="#FEFECE" filter="url(#fcgar1wupug57)" height="36.4883" rx="12.5" ry="12.5" style="stroke:#A80036;stroke-width:1.5;" width="70" x="1012" y="1313.0078"/><text fill="#000000" font-family="sans-serif" font-size="14" lengthAdjust="spacing" textLength="50" x="1022" y="1336.543">Aparna</text><path d="M962,1359.4961 L972,1359.4961 C987,1359.4961 987,1331.252 1002,1331.252 L1012,1331.252 " fill="none" style="stroke:#A80036;stroke-width:1.0;"/><rect fill="#FEFECE" filter="url(#fcgar1wupug57)" height="36.4883" rx="12.5" ry="12.5" style="stroke:#A80036;stroke-width:1.5;" width="118" x="1012" y="1369.4961"/><text fill="#000000" font-family="sans-serif" font-size="14" lengthAdjust="spacing" textLength="98" x="1022" y="1393.0313">Sunil Mahanth</text><path d="M962,1359.4961 L972,1359.4961 C987,1359.4961 987,1387.7402 1002,1387.7402 L1012,1387.7402 " fill="none" style="stroke:#A80036;stroke-width:1.0;"/><path d="M792,1161.7871 L802,1161.7871 C817,1161.7871 817,1359.4961 832,1359.4961 L842,1359.4961 " fill="none" style="stroke:#A80036;stroke-width:1.0;"/><rect fill="#FEFECE" filter="url(#fcgar1wupug57)" height="36.4883" rx="12.5" ry="12.5" style="stroke:#A80036;stroke-width:1.5;" width="67" x="842" y="1454.2285"/><text fill="#000000" font-family="sans-serif" font-size="14" lengthAdjust="spacing" textLength="47" x="852" y="1477.7637">Sarada</text><rect fill="#FEFECE" filter="url(#fcgar1wupug57)" height="36.4883" rx="12.5" ry="12.5" style="stroke:#A80036;stroke-width:1.5;" width="92" x="959" y="1425.9844"/><text fill="#000000" font-family="sans-serif" font-size="14" lengthAdjust="spacing" textLength="72" x="969" y="1449.5195">Naga Mani</text><path d="M909,1472.4727 L919,1472.4727 C934,1472.4727 934,1444.2285 949,1444.2285 L959,1444.2285 " fill="none" style="stroke:#A80036;stroke-width:1.0;"/><rect fill="#FEFECE" filter="url(#fcgar1wupug57)" height="36.4883" rx="12.5" ry="12.5" style="stroke:#A80036;stroke-width:1.5;" width="94" x="959" y="1482.4727"/><text fill="#000000" font-family="sans-serif" font-size="14" lengthAdjust="spacing" textLength="74" x="969" y="1506.0078">Naga Leela</text><path d="M909,1472.4727 L919,1472.4727 C934,1472.4727 934,1500.7168 949,1500.7168 L959,1500.7168 " fill="none" style="stroke:#A80036;stroke-width:1.0;"/><path d="M792,1161.7871 L802,1161.7871 C817,1161.7871 817,1472.4727 832,1472.4727 L842,1472.4727 " fill="none" style="stroke:#A80036;stroke-width:1.0;"/><rect fill="#FEFECE" filter="url(#fcgar1wupug57)" height="36.4883" rx="12.5" ry="12.5" style="stroke:#A80036;stroke-width:1.5;" width="62" x="842" y="1623.6934"/><text fill="#000000" font-family="sans-serif" font-size="14" lengthAdjust="spacing" textLength="42" x="852" y="1647.2285">Aruna</text><rect fill="#FEFECE" filter="url(#fcgar1wupug57)" height="36.4883" rx="12.5" ry="12.5" style="stroke:#A80036;stroke-width:1.5;" width="70" x="954" y="1538.9609"/><text fill="#000000" font-family="sans-serif" font-size="14" lengthAdjust="spacing" textLength="50" x="964" y="1562.4961">Pushpa</text><path d="M904,1641.9375 L914,1641.9375 C929,1641.9375 929,1557.2051 944,1557.2051 L954,1557.2051 " fill="none" style="stroke:#A80036;stroke-width:1.0;"/><rect fill="#FEFECE" filter="url(#fcgar1wupug57)" height="36.4883" rx="12.5" ry="12.5" style="stroke:#A80036;stroke-width:1.5;" width="143" x="954" y="1595.4492"/><text fill="#000000" font-family="sans-serif" font-size="14" lengthAdjust="spacing" textLength="123" x="964" y="1618.9844">Lakshmi Prasanna</text><path d="M904,1641.9375 L914,1641.9375 C929,1641.9375 929,1613.6934 944,1613.6934 L954,1613.6934 " fill="none" style="stroke:#A80036;stroke-width:1.0;"/><rect fill="#FEFECE" filter="url(#fcgar1wupug57)" height="36.4883" rx="12.5" ry="12.5" style="stroke:#A80036;stroke-width:1.5;" width="62" x="954" y="1651.9375"/><text fill="#000000" font-family="sans-serif" font-size="14" lengthAdjust="spacing" textLength="42" x="964" y="1675.4727">Durga</text><path d="M904,1641.9375 L914,1641.9375 C929,1641.9375 929,1670.1816 944,1670.1816 L954,1670.1816 " fill="none" style="stroke:#A80036;stroke-width:1.0;"/><rect fill="#FEFECE" filter="url(#fcgar1wupug57)" height="36.4883" rx="12.5" ry="12.5" style="stroke:#A80036;stroke-width:1.5;" width="108" x="954" y="1708.4258"/><text fill="#000000" font-family="sans-serif" font-size="14" lengthAdjust="spacing" textLength="88" x="964" y="1731.9609">Ratna Kumar</text><path d="M904,1641.9375 L914,1641.9375 C929,1641.9375 929,1726.6699 944,1726.6699 L954,1726.6699 " fill="none" style="stroke:#A80036;stroke-width:1.0;"/><path d="M792,1161.7871 L802,1161.7871 C817,1161.7871 817,1641.9375 832,1641.9375 L842,1641.9375 " fill="none" style="stroke:#A80036;stroke-width:1.0;"/><path d="M626,1500.7168 L636,1500.7168 C651,1500.7168 651,1161.7871 666,1161.7871 L676,1161.7871 " fill="none" style="stroke:#A80036;stroke-width:1.0;"/><rect fill="#FEFECE" filter="url(#fcgar1wupug57)" height="36.4883" rx="12.5" ry="12.5" style="stroke:#A80036;stroke-width:1.5;" width="139" x="676" y="1877.8906"/><text fill="#000000" font-family="sans-serif" font-size="14" lengthAdjust="spacing" textLength="119" x="686" y="1901.4258">seetha rathamma</text><rect fill="#FEFECE" filter="url(#fcgar1wupug57)" height="36.4883" rx="12.5" ry="12.5" style="stroke:#A80036;stroke-width:1.5;" width="50" x="865" y="1821.4023"/><text fill="#000000" font-family="sans-serif" font-size="14" lengthAdjust="spacing" textLength="30" x="875" y="1844.9375">Rani</text><rect fill="#FEFECE" filter="url(#fcgar1wupug57)" height="36.4883" rx="12.5" ry="12.5" style="stroke:#A80036;stroke-width:1.5;" width="145" x="965" y="1764.9141"/><text fill="#000000" font-family="sans-serif" font-size="14" lengthAdjust="spacing" textLength="125" x="975" y="1788.4492">Venkateswara Rao</text><path d="M915,1839.6465 L925,1839.6465 C940,1839.6465 940,1783.1582 955,1783.1582 L965,1783.1582 " fill="none" style="stroke:#A80036;stroke-width:1.0;"/><rect fill="#FEFECE" filter="url(#fcgar1wupug57)" height="36.4883" rx="12.5" ry="12.5" style="stroke:#A80036;stroke-width:1.5;" width="60" x="965" y="1821.4023"/><text fill="#000000" font-family="sans-serif" font-size="14" lengthAdjust="spacing" textLength="40" x="975" y="1844.9375">Eswar</text><path d="M915,1839.6465 L925,1839.6465 C940,1839.6465 940,1839.6465 955,1839.6465 L965,1839.6465 " fill="none" style="stroke:#A80036;stroke-width:1.0;"/><rect fill="#FEFECE" filter="url(#fcgar1wupug57)" height="36.4883" rx="12.5" ry="12.5" style="stroke:#A80036;stroke-width:1.5;" width="58" x="965" y="1877.8906"/><text fill="#000000" font-family="sans-serif" font-size="14" lengthAdjust="spacing" textLength="38" x="975" y="1901.4258">Rajini</text><path d="M915,1839.6465 L925,1839.6465 C940,1839.6465 940,1896.1348 955,1896.1348 L965,1896.1348 " fill="none" style="stroke:#A80036;stroke-width:1.0;"/><path d="M815,1896.1348 L825,1896.1348 C840,1896.1348 840,1839.6465 855,1839.6465 L865,1839.6465 " fill="none" style="stroke:#A80036;stroke-width:1.0;"/><rect fill="#FEFECE" filter="url(#fcgar1wupug57)" height="36.4883" rx="12.5" ry="12.5" style="stroke:#A80036;stroke-width:1.5;" width="66" x="865" y="1962.623"/><text fill="#000000" font-family="sans-serif" font-size="14" lengthAdjust="spacing" textLength="46" x="875" y="1986.1582">Padma</text><rect fill="#FEFECE" filter="url(#fcgar1wupug57)" height="36.4883" rx="12.5" ry="12.5" style="stroke:#A80036;stroke-width:1.5;" width="84" x="981" y="1934.3789"/><text fill="#000000" font-family="sans-serif" font-size="14" lengthAdjust="spacing" textLength="64" x="991" y="1957.9141">Mukunda</text><path d="M931,1980.8672 L941,1980.8672 C956,1980.8672 956,1952.623 971,1952.623 L981,1952.623 " fill="none" style="stroke:#A80036;stroke-width:1.0;"/><rect fill="#FEFECE" filter="url(#fcgar1wupug57)" height="36.4883" rx="12.5" ry="12.5" style="stroke:#A80036;stroke-width:1.5;" width="117" x="981" y="1990.8672"/><text fill="#000000" font-family="sans-serif" font-size="14" lengthAdjust="spacing" textLength="97" x="991" y="2014.4023">Dhanalakshmi</text><path d="M931,1980.8672 L941,1980.8672 C956,1980.8672 956,2009.1113 971,2009.1113 L981,2009.1113 " fill="none" style="stroke:#A80036;stroke-width:1.0;"/><path d="M815,1896.1348 L825,1896.1348 C840,1896.1348 840,1980.8672 855,1980.8672 L865,1980.8672 " fill="none" style="stroke:#A80036;stroke-width:1.0;"/><path d="M626,1500.7168 L636,1500.7168 C651,1500.7168 651,1896.1348 666,1896.1348 L676,1896.1348 " fill="none" style="stroke:#A80036;stroke-width:1.0;"/><rect fill="#FEFECE" filter="url(#fcgar1wupug57)" height="36.4883" rx="12.5" ry="12.5" style="stroke:#A80036;stroke-width:1.5;" width="112" x="676" y="2075.5996"/><text fill="#000000" font-family="sans-serif" font-size="14" lengthAdjust="spacing" textLength="92" x="686" y="2099.1348">khadharbabu</text><rect fill="#FEFECE" filter="url(#fcgar1wupug57)" height="36.4883" rx="12.5" ry="12.5" style="stroke:#A80036;stroke-width:1.5;" width="125" x="838" y="2047.3555"/><text fill="#000000" font-family="sans-serif" font-size="14" lengthAdjust="spacing" textLength="105" x="848" y="2070.8906">Kanthi Madhuri</text><rect fill="#FEFECE" filter="url(#fcgar1wupug57)" height="36.4883" rx="12.5" ry="12.5" style="stroke:#A80036;stroke-width:1.5;" width="65" x="1013" y="2047.3555"/><text fill="#000000" font-family="sans-serif" font-size="14" lengthAdjust="spacing" textLength="45" x="1023" y="2070.8906">Gehari</text><path d="M963,2065.5996 L973,2065.5996 C988,2065.5996 988,2065.5996 1003,2065.5996 L1013,2065.5996 " fill="none" style="stroke:#A80036;stroke-width:1.0;"/><path d="M788,2093.8438 L798,2093.8438 C813,2093.8438 813,2065.5996 828,2065.5996 L838,2065.5996 " fill="none" style="stroke:#A80036;stroke-width:1.0;"/><rect fill="#FEFECE" filter="url(#fcgar1wupug57)" height="36.4883" rx="12.5" ry="12.5" style="stroke:#A80036;stroke-width:1.5;" width="135" x="838" y="2103.8438"/><text fill="#000000" font-family="sans-serif" font-size="14" lengthAdjust="spacing" textLength="115" x="848" y="2127.3789">Lakshmi Neelima</text><rect fill="#FEFECE" filter="url(#fcgar1wupug57)" height="36.4883" rx="12.5" ry="12.5" style="stroke:#A80036;stroke-width:1.5;" width="78" x="1023" y="2103.8438"/><text fill="#000000" font-family="sans-serif" font-size="14" lengthAdjust="spacing" textLength="58" x="1033" y="2127.3789">Vishruth</text><path d="M973,2122.0879 L983,2122.0879 C998,2122.0879 998,2122.0879 1013,2122.0879 L1023,2122.0879 " fill="none" style="stroke:#A80036;stroke-width:1.0;"/><path d="M788,2093.8438 L798,2093.8438 C813,2093.8438 813,2122.0879 828,2122.0879 L838,2122.0879 " fill="none" style="stroke:#A80036;stroke-width:1.0;"/><path d="M626,1500.7168 L636,1500.7168 C651,1500.7168 651,2093.8438 666,2093.8438 L676,2093.8438 " fill="none" style="stroke:#A80036;stroke-width:1.0;"/><rect fill="#FEFECE" filter="url(#fcgar1wupug57)" height="36.4883" rx="12.5" ry="12.5" style="stroke:#A80036;stroke-width:1.5;" width="93" x="676" y="2216.8203"/><text fill="#000000" font-family="sans-serif" font-size="14" lengthAdjust="spacing" textLength="73" x="686" y="2240.3555">chitti babu</text><rect fill="#FEFECE" filter="url(#fcgar1wupug57)" height="36.4883" rx="12.5" ry="12.5" style="stroke:#A80036;stroke-width:1.5;" width="101" x="819" y="2160.332"/><text fill="#000000" font-family="sans-serif" font-size="14" lengthAdjust="spacing" textLength="81" x="829" y="2183.8672">Kanthi Priya</text><rect fill="#FEFECE" filter="url(#fcgar1wupug57)" height="36.4883" rx="12.5" ry="12.5" style="stroke:#A80036;stroke-width:1.5;" width="128" x="970" y="2160.332"/><text fill="#000000" font-family="sans-serif" font-size="14" lengthAdjust="spacing" textLength="108" x="980" y="2183.8672">Samanvithanjali</text><path d="M920,2178.5762 L930,2178.5762 C945,2178.5762 945,2178.5762 960,2178.5762 L970,2178.5762 " fill="none" style="stroke:#A80036;stroke-width:1.0;"/><path d="M769,2235.0645 L779,2235.0645 C794,2235.0645 794,2178.5762 809,2178.5762 L819,2178.5762 " fill="none" style="stroke:#A80036;stroke-width:1.0;"/><rect fill="#FEFECE" filter="url(#fcgar1wupug57)" height="36.4883" rx="12.5" ry="12.5" style="stroke:#A80036;stroke-width:1.5;" width="100" x="819" y="2245.0645"/><text fill="#000000" font-family="sans-serif" font-size="14" lengthAdjust="spacing" textLength="80" x="829" y="2268.5996">Santhi Priya</text><rect fill="#FEFECE" filter="url(#fcgar1wupug57)" height="36.4883" rx="12.5" ry="12.5" style="stroke:#A80036;stroke-width:1.5;" width="72" x="969" y="2216.8203"/><text fill="#000000" font-family="sans-serif" font-size="14" lengthAdjust="spacing" textLength="52" x="979" y="2240.3555">Anvitha</text><path d="M919,2263.3086 L929,2263.3086 C944,2263.3086 944,2235.0645 959,2235.0645 L969,2235.0645 " fill="none" style="stroke:#A80036;stroke-width:1.0;"/><rect fill="#FEFECE" filter="url(#fcgar1wupug57)" height="36.4883" rx="12.5" ry="12.5" style="stroke:#A80036;stroke-width:1.5;" width="73" x="969" y="2273.3086"/><text fill="#000000" font-family="sans-serif" font-size="14" lengthAdjust="spacing" textLength="53" x="979" y="2296.8438">AAdhya</text><path d="M919,2263.3086 L929,2263.3086 C944,2263.3086 944,2291.5527 959,2291.5527 L969,2291.5527 " fill="none" style="stroke:#A80036;stroke-width:1.0;"/><path d="M769,2235.0645 L779,2235.0645 C794,2235.0645 794,2263.3086 809,2263.3086 L819,2263.3086 " fill="none" style="stroke:#A80036;stroke-width:1.0;"/><path d="M626,1500.7168 L636,1500.7168 C651,1500.7168 651,2235.0645 666,2235.0645 L676,2235.0645 " fill="none" style="stroke:#A80036;stroke-width:1.0;"/><rect fill="#FEFECE" filter="url(#fcgar1wupug57)" height="36.4883" rx="12.5" ry="12.5" style="stroke:#A80036;stroke-width:1.5;" width="140" x="676" y="2358.041"/><text fill="#000000" font-family="sans-serif" font-size="14" lengthAdjust="spacing" textLength="120" x="686" y="2381.5762">venkateswara rao</text><rect fill="#FEFECE" filter="url(#fcgar1wupug57)" height="36.4883" rx="12.5" ry="12.5" style="stroke:#A80036;stroke-width:1.5;" width="75" x="866" y="2329.7969"/><text fill="#000000" font-family="sans-serif" font-size="14" lengthAdjust="spacing" textLength="55" x="876" y="2353.332">sukanth</text><path d="M816,2376.2852 L826,2376.2852 C841,2376.2852 841,2348.041 856,2348.041 L866,2348.041 " fill="none" style="stroke:#A80036;stroke-width:1.0;"/><rect fill="#FEFECE" filter="url(#fcgar1wupug57)" height="36.4883" rx="12.5" ry="12.5" style="stroke:#A80036;stroke-width:1.5;" width="80" x="866" y="2386.2852"/><text fill="#000000" font-family="sans-serif" font-size="14" lengthAdjust="spacing" textLength="60" x="876" y="2409.8203">sumanth</text><path d="M816,2376.2852 L826,2376.2852 C841,2376.2852 841,2404.5293 856,2404.5293 L866,2404.5293 " fill="none" style="stroke:#A80036;stroke-width:1.0;"/><path d="M626,1500.7168 L636,1500.7168 C651,1500.7168 651,2376.2852 666,2376.2852 L676,2376.2852 " fill="none" style="stroke:#A80036;stroke-width:1.0;"/><path d="M275,1500.7168 L285,1500.7168 C300,1500.7168 300,1500.7168 315,1500.7168 L325,1500.7168 " fill="none" style="stroke:#A80036;stroke-width:1.0;"/><path d="M99,1472.4727 L109,1472.4727 C124,1472.4727 124,1500.7168 139,1500.7168 L149,1500.7168 " fill="none" style="stroke:#A80036;stroke-width:1.0;"/><rect fill="#FEFECE" filter="url(#fcgar1wupug57)" height="36.4883" rx="12.5" ry="12.5" style="stroke:#A80036;stroke-width:1.5;" width="81" x="149" y="2612.2383"/><text fill="#000000" font-family="sans-serif" font-size="14" lengthAdjust="spacing" textLength="61" x="159" y="2635.7734">mattayya</text><rect fill="#FEFECE" filter="url(#fcgar1wupug57)" height="36.4883" rx="12.5" ry="12.5" style="stroke:#A80036;stroke-width:1.5;" width="26" x="280" y="2442.7734"/><text fill="#000000" font-family="sans-serif" font-size="14" lengthAdjust="spacing" textLength="6" x="290" y="2466.3086">?</text><path d="M230,2630.4824 L240,2630.4824 C255,2630.4824 255,2461.0176 270,2461.0176 L280,2461.0176 " fill="none" style="stroke:#A80036;stroke-width:1.0;"/><rect fill="#FEFECE" filter="url(#fcgar1wupug57)" height="36.4883" rx="12.5" ry="12.5" style="stroke:#A80036;stroke-width:1.5;" width="270" x="280" y="2499.2617"/><text fill="#000000" font-family="sans-serif" font-size="14" lengthAdjust="spacing" textLength="250" x="290" y="2522.7969">Venkata Subbarao ( #1 Original Son)</text><path d="M230,2630.4824 L240,2630.4824 C255,2630.4824 255,2517.5059 270,2517.5059 L280,2517.5059 " fill="none" style="stroke:#A80036;stroke-width:1.0;"/><rect fill="#FEFECE" filter="url(#fcgar1wupug57)" height="36.4883" rx="12.5" ry="12.5" style="stroke:#A80036;stroke-width:1.5;" width="72" x="280" y="2640.4824"/><text fill="#000000" font-family="sans-serif" font-size="14" lengthAdjust="spacing" textLength="52" x="290" y="2664.0176">Ramulu</text><rect fill="#FEFECE" filter="url(#fcgar1wupug57)" height="36.4883" rx="12.5" ry="12.5" style="stroke:#A80036;stroke-width:1.5;" width="141" x="402" y="2555.75"/><text fill="#000000" font-family="sans-serif" font-size="14" lengthAdjust="spacing" textLength="121" x="412" y="2579.2852">Pedda anjaneyulu</text><path d="M352,2658.7266 L362,2658.7266 C377,2658.7266 377,2573.9941 392,2573.9941 L402,2573.9941 " fill="none" style="stroke:#A80036;stroke-width:1.0;"/><rect fill="#FEFECE" filter="url(#fcgar1wupug57)" height="36.4883" rx="12.5" ry="12.5" style="stroke:#A80036;stroke-width:1.5;" width="148" x="402" y="2612.2383"/><text fill="#000000" font-family="sans-serif" font-size="14" lengthAdjust="spacing" textLength="128" x="412" y="2635.7734">Chinna anjaneyulu</text><path d="M352,2658.7266 L362,2658.7266 C377,2658.7266 377,2630.4824 392,2630.4824 L402,2630.4824 " fill="none" style="stroke:#A80036;stroke-width:1.0;"/><rect fill="#FEFECE" filter="url(#fcgar1wupug57)" height="36.4883" rx="12.5" ry="12.5" style="stroke:#A80036;stroke-width:1.5;" width="133" x="402" y="2668.7266"/><text fill="#000000" font-family="sans-serif" font-size="14" lengthAdjust="spacing" textLength="113" x="412" y="2692.2617">chitti anjaneyulu</text><path d="M352,2658.7266 L362,2658.7266 C377,2658.7266 377,2686.9707 392,2686.9707 L402,2686.9707 " fill="none" style="stroke:#A80036;stroke-width:1.0;"/><rect fill="#FEFECE" filter="url(#fcgar1wupug57)" height="36.4883" rx="12.5" ry="12.5" style="stroke:#A80036;stroke-width:1.5;" width="136" x="402" y="2725.2148"/><text fill="#000000" font-family="sans-serif" font-size="14" lengthAdjust="spacing" textLength="116" x="412" y="2748.75">veera anjaneyulu</text><path d="M352,2658.7266 L362,2658.7266 C377,2658.7266 377,2743.459 392,2743.459 L402,2743.459 " fill="none" style="stroke:#A80036;stroke-width:1.0;"/><path d="M230,2630.4824 L240,2630.4824 C255,2630.4824 255,2658.7266 270,2658.7266 L280,2658.7266 " fill="none" style="stroke:#A80036;stroke-width:1.0;"/><rect fill="#FEFECE" filter="url(#fcgar1wupug57)" height="36.4883" rx="12.5" ry="12.5" style="stroke:#A80036;stroke-width:1.5;" width="71" x="280" y="2781.7031"/><text fill="#000000" font-family="sans-serif" font-size="14" lengthAdjust="spacing" textLength="51" x="290" y="2805.2383">Suryam</text><rect fill="#FEFECE" filter="url(#fcgar1wupug57)" height="36.4883" rx="12.5" ry="12.5" style="stroke:#A80036;stroke-width:1.5;" width="185" x="401" y="2781.7031"/><text fill="#000000" font-family="sans-serif" font-size="14" lengthAdjust="spacing" textLength="165" x="411" y="2805.2383">Ravi (dattata kumarudu)</text><path d="M351,2799.9473 L361,2799.9473 C376,2799.9473 376,2799.9473 391,2799.9473 L401,2799.9473 " fill="none" style="stroke:#A80036;stroke-width:1.0;"/><path d="M230,2630.4824 L240,2630.4824 C255,2630.4824 255,2799.9473 270,2799.9473 L280,2799.9473 " fill="none" style="stroke:#A80036;stroke-width:1.0;"/><path d="M99,1472.4727 L109,1472.4727 C124,1472.4727 124,2630.4824 139,2630.4824 L149,2630.4824 " fill="none" style="stroke:#A80036;stroke-width:1.0;"/><rect fill="#FEFECE" filter="url(#fcgar1wupug57)" height="36.4883" rx="12.5" ry="12.5" style="stroke:#A80036;stroke-width:1.5;" width="81" x="149" y="2838.1914"/><text fill="#000000" font-family="sans-serif" font-size="14" lengthAdjust="spacing" textLength="61" x="159" y="2861.7266">rammiah</text><rect fill="#FEFECE" filter="url(#fcgar1wupug57)" height="36.4883" rx="12.5" ry="12.5" style="stroke:#A80036;stroke-width:1.5;" width="86" x="280" y="2838.1914"/><text fill="#000000" font-family="sans-serif" font-size="14" lengthAdjust="spacing" textLength="66" x="290" y="2861.7266">Subbarao</text><rect fill="#FEFECE" filter="url(#fcgar1wupug57)" height="36.4883" rx="12.5" ry="12.5" style="stroke:#A80036;stroke-width:1.5;" width="63" x="416" y="2838.1914"/><text fill="#000000" font-family="sans-serif" font-size="14" lengthAdjust="spacing" textLength="43" x="426" y="2861.7266">Ranga</text><path d="M366,2856.4355 L376,2856.4355 C391,2856.4355 391,2856.4355 406,2856.4355 L416,2856.4355 " fill="none" style="stroke:#A80036;stroke-width:1.0;"/><path d="M230,2856.4355 L240,2856.4355 C255,2856.4355 255,2856.4355 270,2856.4355 L280,2856.4355 " fill="none" style="stroke:#A80036;stroke-width:1.0;"/><path d="M99,1472.4727 L109,1472.4727 C124,1472.4727 124,2856.4355 139,2856.4355 L149,2856.4355 " fill="none" style="stroke:#A80036;stroke-width:1.0;"/><rect fill="none" height="16.4883" style="stroke:none;stroke-width:1.0;" width="241" x="424" y="2885.6797"/><text fill="#000000" font-family="sans-serif" font-size="14" lengthAdjust="spacing" textLength="241" x="424" y="2899.2148">email : contact.sukanth@gmail.com</text><rect fill="none" height="11.7773" style="stroke:none;stroke-width:1.0;" width="73" x="508" y="2904.168"/><text fill="#888888" font-family="sans-serif" font-size="10" lengthAdjust="spacing" textLength="73" x="508" y="2913.8359">Sukanth Gunda</text><!--MD5=[180ae6f5ffb8acebf9ec245d8ad749ef]
@startmindmap
caption email : contact.sukanth@gmail.com
title: Family Tree
* guravayya
  ** pedda kottaiah
    *** kasiah
        **** prakash rao
            ***** Suseela
            ***** ?
            ***** kasiah
                ****** rama
                    ******* Sireesha
                    ******* Chandra Kanth
                ****** prakash
                    ******* Supriya
                    ******* Karthik
                ****** kumar
                    ******* Meghana
                ****** sekhar
                    ******* Tejesh
                    ******* Akash
            ***** Ramana
            ***** ?
  ** chinna kottaiah
    *** dattata kumarudu venkata subbarao (#1)
        **** anasuryamma
            ***** Mohan Rao
                ****** Nagamani
                ****** Jaalu
            ***** Muralidhar Rao
                ****** Prasad
            ***** Ranga Rao
                ****** Seshu
                ****** Kusuma
                ****** Upendra
            ***** Srinivasa Rao
                ****** Deepthi
                ****** Sudha Rani
                ****** Vamsi Krishna
            ***** Rama Krishna
                ****** Sharmila
                ****** Sireesha
                ****** Swapna
                ****** Swetha
            ***** Prabhakar Rao
                ****** Aparna
                ****** Sunil Mahanth
            ***** Sarada
                ****** Naga Mani
                ****** Naga Leela
            ***** Aruna
                ****** Pushpa
                ****** Lakshmi Prasanna
                ****** Durga
                ****** Ratna Kumar
        **** seetha rathamma
            ***** Rani
                ****** Venkateswara Rao
                ****** Eswar
                ****** Rajini
            ***** Padma
                ****** Mukunda
                ****** Dhanalakshmi
        **** khadharbabu
            ***** Kanthi Madhuri
                ****** Gehari
            ***** Lakshmi Neelima
                ****** Vishruth
        **** chitti babu
            ***** Kanthi Priya
                ****** Samanvithanjali
            ***** Santhi Priya
                ****** Anvitha
                ****** AAdhya
        **** venkateswara rao
            ***** sukanth
            ***** sumanth
  ** mattayya
    *** ?
    *** Venkata Subbarao ( #1 Original Son)
    *** Ramulu
        **** Pedda anjaneyulu
        **** Chinna anjaneyulu
        **** chitti anjaneyulu
        **** veera anjaneyulu

    *** Suryam
        **** Ravi (dattata kumarudu)
  ** rammiah
    *** Subbarao
        **** Ranga

header
Drafted by Sukanth Gunda
endheader

center footer Sukanth Gunda

@endmindmap

PlantUML version 1.2021.11(Sat Oct 02 08:26:11 CDT 2021)
(GPL source distribution)
Java Runtime: OpenJDK Runtime Environment
JVM: OpenJDK 64-Bit Server VM
Default Encoding: UTF-8
Language: en
Country: US
--></g></svg>